<?xml version="1.0" encoding="UTF-8" standalone="no"?>
<!DOCTYPE svg PUBLIC "-//W3C//DTD SVG 1.1//EN"
 "http://www.w3.org/Graphics/SVG/1.1/DTD/svg11.dtd">
<!-- Generated by graphviz version 2.40.1 (20161225.0304)
 -->
<!-- Title: G Pages: 1 -->
<svg width="2631pt" height="332pt"
 viewBox="0.00 0.00 2630.85 332.00" xmlns="http://www.w3.org/2000/svg" xmlns:xlink="http://www.w3.org/1999/xlink">
<g id="graph0" class="graph" transform="scale(1 1) rotate(0) translate(4 328)">
<title>G</title>
<polygon fill="#ffffff" stroke="transparent" points="-4,4 -4,-328 2626.8486,-328 2626.8486,4 -4,4"/>
<!-- index.js -->
<g id="node1" class="node">
<title>index.js</title>
<ellipse fill="none" stroke="#000000" cx="1343.473" cy="-306" rx="41.1922" ry="18"/>
<text text-anchor="middle" x="1343.473" y="-301.8" font-family="Times,serif" font-size="14.00" fill="#000000">index.js</text>
</g>
<!-- lib/executePublish.js -->
<g id="node2" class="node">
<title>lib/executePublish.js</title>
<ellipse fill="none" stroke="#000000" cx="825.473" cy="-234" rx="91.4677" ry="18"/>
<text text-anchor="middle" x="825.473" y="-229.8" font-family="Times,serif" font-size="14.00" fill="#000000">lib/executePublish.js</text>
</g>
<!-- index.js&#45;&gt;lib/executePublish.js -->
<g id="edge1" class="edge">
<title>index.js&#45;&gt;lib/executePublish.js</title>
<path fill="none" stroke="#000000" d="M1303.6865,-300.4698C1219.864,-288.8188 1023.5181,-261.5275 910.1993,-245.7766"/>
<polygon fill="#000000" stroke="#000000" points="910.558,-242.2929 900.1713,-244.3828 909.5942,-249.2263 910.558,-242.2929"/>
</g>
<!-- lib/get.js -->
<g id="node3" class="node">
<title>lib/get.js</title>
<ellipse fill="none" stroke="#000000" cx="1454.473" cy="-234" rx="44.6367" ry="18"/>
<text text-anchor="middle" x="1454.473" y="-229.8" font-family="Times,serif" font-size="14.00" fill="#000000">lib/get.js</text>
</g>
<!-- index.js&#45;&gt;lib/get.js -->
<g id="edge2" class="edge">
<title>index.js&#45;&gt;lib/get.js</title>
<path fill="none" stroke="#000000" d="M1366.7423,-290.9064C1382.7663,-280.5125 1404.276,-266.5602 1421.9863,-255.0725"/>
<polygon fill="#000000" stroke="#000000" points="1424.3672,-257.7 1430.8521,-249.3217 1420.5578,-251.8272 1424.3672,-257.7"/>
</g>
<!-- lib/getConfig.js -->
<g id="node4" class="node">
<title>lib/getConfig.js</title>
<ellipse fill="none" stroke="#000000" cx="1588.473" cy="-234" rx="71.285" ry="18"/>
<text text-anchor="middle" x="1588.473" y="-229.8" font-family="Times,serif" font-size="14.00" fill="#000000">lib/getConfig.js</text>
</g>
<!-- index.js&#45;&gt;lib/getConfig.js -->
<g id="edge3" class="edge">
<title>index.js&#45;&gt;lib/getConfig.js</title>
<path fill="none" stroke="#000000" d="M1377.7972,-295.9129C1417.7556,-284.17 1484.3416,-264.6019 1531.9624,-250.6072"/>
<polygon fill="#000000" stroke="#000000" points="1533.2125,-253.8879 1541.8199,-247.7103 1531.2388,-247.1719 1533.2125,-253.8879"/>
</g>
<!-- lib/getDependenciesSVG.js -->
<g id="node5" class="node">
<title>lib/getDependenciesSVG.js</title>
<ellipse fill="none" stroke="#000000" cx="1795.473" cy="-234" rx="118.0748" ry="18"/>
<text text-anchor="middle" x="1795.473" y="-229.8" font-family="Times,serif" font-size="14.00" fill="#000000">lib/getDependenciesSVG.js</text>
</g>
<!-- index.js&#45;&gt;lib/getDependenciesSVG.js -->
<g id="edge4" class="edge">
<title>index.js&#45;&gt;lib/getDependenciesSVG.js</title>
<path fill="none" stroke="#000000" d="M1382.4015,-299.799C1453.3087,-288.5041 1605.2731,-264.2973 1703.7917,-248.6041"/>
<polygon fill="#000000" stroke="#000000" points="1704.4227,-252.0478 1713.7476,-247.0182 1703.3215,-245.135 1704.4227,-252.0478"/>
</g>
<!-- lib/git/git.js -->
<g id="node6" class="node">
<title>lib/git/git.js</title>
<ellipse fill="none" stroke="#000000" cx="250.473" cy="-162" rx="55.6899" ry="18"/>
<text text-anchor="middle" x="250.473" y="-157.8" font-family="Times,serif" font-size="14.00" fill="#000000">lib/git/git.js</text>
</g>
<!-- index.js&#45;&gt;lib/git/git.js -->
<g id="edge5" class="edge">
<title>index.js&#45;&gt;lib/git/git.js</title>
<path fill="none" stroke="#000000" d="M1302.2853,-304.1542C1164.5203,-297.8133 720.5572,-275.9868 579.473,-252 477.7877,-234.7117 362.1678,-199.2846 298.6497,-178.4053"/>
<polygon fill="#000000" stroke="#000000" points="299.5062,-175.0022 288.9129,-175.1842 297.3076,-181.6479 299.5062,-175.0022"/>
</g>
<!-- lib/npm/npmPublish.js -->
<g id="node7" class="node">
<title>lib/npm/npmPublish.js</title>
<ellipse fill="none" stroke="#000000" cx="423.473" cy="-162" rx="98.5364" ry="18"/>
<text text-anchor="middle" x="423.473" y="-157.8" font-family="Times,serif" font-size="14.00" fill="#000000">lib/npm/npmPublish.js</text>
</g>
<!-- index.js&#45;&gt;lib/npm/npmPublish.js -->
<g id="edge6" class="edge">
<title>index.js&#45;&gt;lib/npm/npmPublish.js</title>
<path fill="none" stroke="#000000" d="M1301.8516,-305.2622C1201.7025,-302.8601 939.7076,-292.8451 725.473,-252 636.8944,-235.1119 537.1877,-202.6622 477.4014,-181.6901"/>
<polygon fill="#000000" stroke="#000000" points="478.3913,-178.3279 467.7965,-178.299 476.0608,-184.9286 478.3913,-178.3279"/>
</g>
<!-- lib/questions/release_questions.js -->
<g id="node8" class="node">
<title>lib/questions/release_questions.js</title>
<ellipse fill="none" stroke="#000000" cx="822.473" cy="-90" rx="140.0815" ry="18"/>
<text text-anchor="middle" x="822.473" y="-85.8" font-family="Times,serif" font-size="14.00" fill="#000000">lib/questions/release_questions.js</text>
</g>
<!-- index.js&#45;&gt;lib/questions/release_questions.js -->
<g id="edge7" class="edge">
<title>index.js&#45;&gt;lib/questions/release_questions.js</title>
<path fill="none" stroke="#000000" d="M1342.9903,-287.9136C1341.0146,-253.7337 1331.4645,-179.8746 1286.473,-144 1231.3857,-100.0753 1041.4469,-116.225 971.473,-108 959.4256,-106.5839 946.8324,-105.0876 934.2903,-103.587"/>
<polygon fill="#000000" stroke="#000000" points="934.5996,-100.0991 924.2541,-102.3842 933.7665,-107.0494 934.5996,-100.0991"/>
</g>
<!-- lib/validateCommitMessage.js -->
<g id="node9" class="node">
<title>lib/validateCommitMessage.js</title>
<ellipse fill="none" stroke="#000000" cx="2060.473" cy="-234" rx="128.5638" ry="18"/>
<text text-anchor="middle" x="2060.473" y="-229.8" font-family="Times,serif" font-size="14.00" fill="#000000">lib/validateCommitMessage.js</text>
</g>
<!-- index.js&#45;&gt;lib/validateCommitMessage.js -->
<g id="edge8" class="edge">
<title>index.js&#45;&gt;lib/validateCommitMessage.js</title>
<path fill="none" stroke="#000000" d="M1384.2401,-302.7158C1478.8829,-294.9783 1720.806,-274.5487 1922.473,-252 1933.9161,-250.7205 1945.881,-249.2937 1957.777,-247.8186"/>
<polygon fill="#000000" stroke="#000000" points="1958.2532,-251.2864 1967.7405,-246.5704 1957.3829,-244.3407 1958.2532,-251.2864"/>
</g>
<!-- node_modules/ansi&#45;colors/index.js -->
<g id="node10" class="node">
<title>node_modules/ansi&#45;colors/index.js</title>
<ellipse fill="none" stroke="#000000" cx="1125.473" cy="-90" rx="145.3085" ry="18"/>
<text text-anchor="middle" x="1125.473" y="-85.8" font-family="Times,serif" font-size="14.00" fill="#000000">node_modules/ansi&#45;colors/index.js</text>
</g>
<!-- index.js&#45;&gt;node_modules/ansi&#45;colors/index.js -->
<g id="edge9" class="edge">
<title>index.js&#45;&gt;node_modules/ansi&#45;colors/index.js</title>
<path fill="none" stroke="#000000" d="M1346.5677,-287.8458C1351.0827,-254.8524 1355.4113,-184.7121 1319.473,-144 1305.8181,-128.5312 1263.5114,-115.847 1221.8777,-106.6681"/>
<polygon fill="#000000" stroke="#000000" points="1222.404,-103.2015 1211.8926,-104.5284 1220.9372,-110.0461 1222.404,-103.2015"/>
</g>
<!-- node_modules/inquirer/lib/inquirer.js -->
<g id="node11" class="node">
<title>node_modules/inquirer/lib/inquirer.js</title>
<ellipse fill="none" stroke="#000000" cx="1444.473" cy="-90" rx="155.6981" ry="18"/>
<text text-anchor="middle" x="1444.473" y="-85.8" font-family="Times,serif" font-size="14.00" fill="#000000">node_modules/inquirer/lib/inquirer.js</text>
</g>
<!-- index.js&#45;&gt;node_modules/inquirer/lib/inquirer.js -->
<g id="edge10" class="edge">
<title>index.js&#45;&gt;node_modules/inquirer/lib/inquirer.js</title>
<path fill="none" stroke="#000000" d="M1348.9574,-287.9551C1360.2305,-251.3238 1386.1467,-169.5511 1400.473,-144 1405.941,-134.2479 1413.1982,-124.4966 1420.2392,-116.0175"/>
<polygon fill="#000000" stroke="#000000" points="1422.9924,-118.1839 1426.8581,-108.3194 1417.6846,-113.6202 1422.9924,-118.1839"/>
</g>
<!-- node_modules/semver/semver.js -->
<g id="node12" class="node">
<title>node_modules/semver/semver.js</title>
<ellipse fill="none" stroke="#000000" cx="1140.473" cy="-162" rx="137.2008" ry="18"/>
<text text-anchor="middle" x="1140.473" y="-157.8" font-family="Times,serif" font-size="14.00" fill="#000000">node_modules/semver/semver.js</text>
</g>
<!-- index.js&#45;&gt;node_modules/semver/semver.js -->
<g id="edge11" class="edge">
<title>index.js&#45;&gt;node_modules/semver/semver.js</title>
<path fill="none" stroke="#000000" d="M1321.7485,-290.5895C1286.2476,-265.4066 1215.5729,-215.2728 1173.7281,-185.5898"/>
<polygon fill="#000000" stroke="#000000" points="1175.6924,-182.6921 1165.5111,-179.761 1171.6424,-188.4015 1175.6924,-182.6921"/>
</g>
<!-- lib/executePublish.js&#45;&gt;lib/git/git.js -->
<g id="edge13" class="edge">
<title>lib/executePublish.js&#45;&gt;lib/git/git.js</title>
<path fill="none" stroke="#000000" d="M737.293,-229.0852C635.1066,-222.3709 461.9865,-207.8466 315.473,-180 310.7602,-179.1043 305.8911,-178.0342 301.0364,-176.8686"/>
<polygon fill="#000000" stroke="#000000" points="301.6995,-173.4262 291.1465,-174.3671 299.9829,-180.2125 301.6995,-173.4262"/>
</g>
<!-- lib/executePublish.js&#45;&gt;lib/npm/npmPublish.js -->
<g id="edge14" class="edge">
<title>lib/executePublish.js&#45;&gt;lib/npm/npmPublish.js</title>
<path fill="none" stroke="#000000" d="M757.7338,-221.8676C687.8501,-209.3511 578.851,-189.8289 504.458,-176.5048"/>
<polygon fill="#000000" stroke="#000000" points="504.6587,-172.9851 494.1982,-174.6672 503.4245,-179.8754 504.6587,-172.9851"/>
</g>
<!-- lib/executePublish.js&#45;&gt;node_modules/semver/semver.js -->
<g id="edge16" class="edge">
<title>lib/executePublish.js&#45;&gt;node_modules/semver/semver.js</title>
<path fill="none" stroke="#000000" d="M885.0924,-220.3727C935.2141,-208.9163 1007.2467,-192.4517 1062.0403,-179.9275"/>
<polygon fill="#000000" stroke="#000000" points="1063.093,-183.2772 1072.0617,-177.6369 1061.5332,-176.4532 1063.093,-183.2772"/>
</g>
<!-- lib/addReleaseNotes.js -->
<g id="node13" class="node">
<title>lib/addReleaseNotes.js</title>
<ellipse fill="none" stroke="#000000" cx="885.473" cy="-162" rx="99.0311" ry="18"/>
<text text-anchor="middle" x="885.473" y="-157.8" font-family="Times,serif" font-size="14.00" fill="#000000">lib/addReleaseNotes.js</text>
</g>
<!-- lib/executePublish.js&#45;&gt;lib/addReleaseNotes.js -->
<g id="edge12" class="edge">
<title>lib/executePublish.js&#45;&gt;lib/addReleaseNotes.js</title>
<path fill="none" stroke="#000000" d="M840.3045,-216.2022C847.444,-207.6348 856.1389,-197.2009 863.9864,-187.7839"/>
<polygon fill="#000000" stroke="#000000" points="866.8911,-189.7654 870.6042,-179.8425 861.5136,-185.2841 866.8911,-189.7654"/>
</g>
<!-- lib/updatePackageJSON.js -->
<g id="node14" class="node">
<title>lib/updatePackageJSON.js</title>
<ellipse fill="none" stroke="#000000" cx="654.473" cy="-162" rx="113.5019" ry="18"/>
<text text-anchor="middle" x="654.473" y="-157.8" font-family="Times,serif" font-size="14.00" fill="#000000">lib/updatePackageJSON.js</text>
</g>
<!-- lib/executePublish.js&#45;&gt;lib/updatePackageJSON.js -->
<g id="edge15" class="edge">
<title>lib/executePublish.js&#45;&gt;lib/updatePackageJSON.js</title>
<path fill="none" stroke="#000000" d="M786.6705,-217.6621C762.185,-207.3524 730.3288,-193.9393 704.0235,-182.8633"/>
<polygon fill="#000000" stroke="#000000" points="705.1817,-179.5535 694.6071,-178.8986 702.4653,-186.0049 705.1817,-179.5535"/>
</g>
<!-- lib/prompts/prompts.js -->
<g id="node15" class="node">
<title>lib/prompts/prompts.js</title>
<ellipse fill="none" stroke="#000000" cx="1508.473" cy="-162" rx="98.5133" ry="18"/>
<text text-anchor="middle" x="1508.473" y="-157.8" font-family="Times,serif" font-size="14.00" fill="#000000">lib/prompts/prompts.js</text>
</g>
<!-- lib/get.js&#45;&gt;lib/prompts/prompts.js -->
<g id="edge17" class="edge">
<title>lib/get.js&#45;&gt;lib/prompts/prompts.js</title>
<path fill="none" stroke="#000000" d="M1467.5449,-216.5708C1473.9667,-208.0085 1481.836,-197.5161 1488.9526,-188.0272"/>
<polygon fill="#000000" stroke="#000000" points="1491.7575,-190.1206 1494.9576,-180.0206 1486.1575,-185.9206 1491.7575,-190.1206"/>
</g>
<!-- node_modules/configstore/index.js -->
<g id="node16" class="node">
<title>node_modules/configstore/index.js</title>
<ellipse fill="none" stroke="#000000" cx="1771.473" cy="-162" rx="146.4542" ry="18"/>
<text text-anchor="middle" x="1771.473" y="-157.8" font-family="Times,serif" font-size="14.00" fill="#000000">node_modules/configstore/index.js</text>
</g>
<!-- lib/getConfig.js&#45;&gt;node_modules/configstore/index.js -->
<g id="edge18" class="edge">
<title>lib/getConfig.js&#45;&gt;node_modules/configstore/index.js</title>
<path fill="none" stroke="#000000" d="M1627.2826,-218.7307C1653.676,-208.3464 1688.9423,-194.4711 1717.9907,-183.0422"/>
<polygon fill="#000000" stroke="#000000" points="1719.5576,-186.187 1727.5818,-179.2687 1716.9947,-179.673 1719.5576,-186.187"/>
</g>
<!-- node_modules/@mithray/analyze&#45;js/index.js -->
<g id="node17" class="node">
<title>node_modules/@mithray/analyze&#45;js/index.js</title>
<ellipse fill="none" stroke="#000000" cx="2119.473" cy="-162" rx="183.5871" ry="18"/>
<text text-anchor="middle" x="2119.473" y="-157.8" font-family="Times,serif" font-size="14.00" fill="#000000">node_modules/@mithray/analyze&#45;js/index.js</text>
</g>
<!-- lib/getDependenciesSVG.js&#45;&gt;node_modules/@mithray/analyze&#45;js/index.js -->
<g id="edge19" class="edge">
<title>lib/getDependenciesSVG.js&#45;&gt;node_modules/@mithray/analyze&#45;js/index.js</title>
<path fill="none" stroke="#000000" d="M1862.606,-219.0816C1912.6858,-207.9527 1981.4409,-192.6738 2035.2155,-180.7239"/>
<polygon fill="#000000" stroke="#000000" points="2036.0716,-184.1191 2045.0742,-178.5331 2034.553,-177.2858 2036.0716,-184.1191"/>
</g>
<!-- lib/git/gitAdd.js -->
<g id="node18" class="node">
<title>lib/git/gitAdd.js</title>
<ellipse fill="none" stroke="#000000" cx="72.473" cy="-90" rx="72.4461" ry="18"/>
<text text-anchor="middle" x="72.473" y="-85.8" font-family="Times,serif" font-size="14.00" fill="#000000">lib/git/gitAdd.js</text>
</g>
<!-- lib/git/git.js&#45;&gt;lib/git/gitAdd.js -->
<g id="edge20" class="edge">
<title>lib/git/git.js&#45;&gt;lib/git/gitAdd.js</title>
<path fill="none" stroke="#000000" d="M215.306,-147.7751C188.0618,-136.755 150.0373,-121.3743 120.0707,-109.253"/>
<polygon fill="#000000" stroke="#000000" points="121.231,-105.9469 110.6482,-105.4417 118.6061,-112.4361 121.231,-105.9469"/>
</g>
<!-- lib/git/gitCommit.js -->
<g id="node19" class="node">
<title>lib/git/gitCommit.js</title>
<ellipse fill="none" stroke="#000000" cx="250.473" cy="-90" rx="87.51" ry="18"/>
<text text-anchor="middle" x="250.473" y="-85.8" font-family="Times,serif" font-size="14.00" fill="#000000">lib/git/gitCommit.js</text>
</g>
<!-- lib/git/git.js&#45;&gt;lib/git/gitCommit.js -->
<g id="edge21" class="edge">
<title>lib/git/git.js&#45;&gt;lib/git/gitCommit.js</title>
<path fill="none" stroke="#000000" d="M250.473,-143.8314C250.473,-136.131 250.473,-126.9743 250.473,-118.4166"/>
<polygon fill="#000000" stroke="#000000" points="253.9731,-118.4132 250.473,-108.4133 246.9731,-118.4133 253.9731,-118.4132"/>
</g>
<!-- lib/git/gitPush.js -->
<g id="node20" class="node">
<title>lib/git/gitPush.js</title>
<ellipse fill="none" stroke="#000000" cx="430.473" cy="-90" rx="74.7513" ry="18"/>
<text text-anchor="middle" x="430.473" y="-85.8" font-family="Times,serif" font-size="14.00" fill="#000000">lib/git/gitPush.js</text>
</g>
<!-- lib/git/git.js&#45;&gt;lib/git/gitPush.js -->
<g id="edge22" class="edge">
<title>lib/git/git.js&#45;&gt;lib/git/gitPush.js</title>
<path fill="none" stroke="#000000" d="M285.6061,-147.9468C313.1174,-136.9422 351.6895,-121.5134 382.1159,-109.3429"/>
<polygon fill="#000000" stroke="#000000" points="383.6991,-112.4792 391.684,-105.5156 381.0993,-105.9799 383.6991,-112.4792"/>
</g>
<!-- lib/prompts/prompts.js&#45;&gt;lib/questions/release_questions.js -->
<g id="edge27" class="edge">
<title>lib/prompts/prompts.js&#45;&gt;lib/questions/release_questions.js</title>
<path fill="none" stroke="#000000" d="M1420.5149,-153.6994C1314.1079,-143.5321 1129.5625,-125.4959 971.473,-108 959.3141,-106.6544 946.6035,-105.1969 933.9526,-103.7138"/>
<polygon fill="#000000" stroke="#000000" points="934.1723,-100.2156 923.8312,-102.5206 933.3526,-107.1674 934.1723,-100.2156"/>
</g>
<!-- lib/prompts/prompts.js&#45;&gt;node_modules/ansi&#45;colors/index.js -->
<g id="edge28" class="edge">
<title>lib/prompts/prompts.js&#45;&gt;node_modules/ansi&#45;colors/index.js</title>
<path fill="none" stroke="#000000" d="M1439.558,-149.0447C1376.95,-137.275 1284.1844,-119.8361 1215.6901,-106.9599"/>
<polygon fill="#000000" stroke="#000000" points="1216.2414,-103.5023 1205.7669,-105.0944 1214.9481,-110.3818 1216.2414,-103.5023"/>
</g>
<!-- lib/prompts/prompts.js&#45;&gt;node_modules/inquirer/lib/inquirer.js -->
<g id="edge29" class="edge">
<title>lib/prompts/prompts.js&#45;&gt;node_modules/inquirer/lib/inquirer.js</title>
<path fill="none" stroke="#000000" d="M1492.6528,-144.2022C1485.0182,-135.6134 1475.7163,-125.1486 1467.3291,-115.7131"/>
<polygon fill="#000000" stroke="#000000" points="1469.8154,-113.242 1460.5558,-108.0931 1464.5835,-117.8925 1469.8154,-113.242"/>
</g>
<!-- lib/markedCLI.js -->
<g id="node21" class="node">
<title>lib/markedCLI.js</title>
<ellipse fill="none" stroke="#000000" cx="2313.473" cy="-90" rx="77.0631" ry="18"/>
<text text-anchor="middle" x="2313.473" y="-85.8" font-family="Times,serif" font-size="14.00" fill="#000000">lib/markedCLI.js</text>
</g>
<!-- lib/prompts/prompts.js&#45;&gt;lib/markedCLI.js -->
<g id="edge25" class="edge">
<title>lib/prompts/prompts.js&#45;&gt;lib/markedCLI.js</title>
<path fill="none" stroke="#000000" d="M1578.3267,-149.2438C1590.9889,-147.2494 1604.1004,-145.3916 1616.473,-144 1886.7952,-113.5966 1957.8341,-143.9618 2227.473,-108 2234.2795,-107.0922 2241.3514,-105.9471 2248.3849,-104.6762"/>
<polygon fill="#000000" stroke="#000000" points="2249.4526,-108.0364 2258.627,-102.7372 2248.1504,-101.1585 2249.4526,-108.0364"/>
</g>
<!-- lib/questions/hints.js -->
<g id="node24" class="node">
<title>lib/questions/hints.js</title>
<ellipse fill="none" stroke="#000000" cx="2499.473" cy="-90" rx="90.9247" ry="18"/>
<text text-anchor="middle" x="2499.473" y="-85.8" font-family="Times,serif" font-size="14.00" fill="#000000">lib/questions/hints.js</text>
</g>
<!-- lib/prompts/prompts.js&#45;&gt;lib/questions/hints.js -->
<g id="edge26" class="edge">
<title>lib/prompts/prompts.js&#45;&gt;lib/questions/hints.js</title>
<path fill="none" stroke="#000000" d="M1578.0223,-149.1565C1590.7757,-147.1583 1603.9971,-145.3217 1616.473,-144 1962.902,-107.2992 2053.2888,-146.9422 2399.473,-108 2407.8516,-107.0575 2416.5874,-105.8395 2425.2551,-104.4817"/>
<polygon fill="#000000" stroke="#000000" points="2426.067,-107.8956 2435.3733,-102.8316 2424.9403,-100.9868 2426.067,-107.8956"/>
</g>
<!-- node_modules/log&#45;update/index.js -->
<g id="node25" class="node">
<title>node_modules/log&#45;update/index.js</title>
<ellipse fill="none" stroke="#000000" cx="1762.473" cy="-90" rx="144.1705" ry="18"/>
<text text-anchor="middle" x="1762.473" y="-85.8" font-family="Times,serif" font-size="14.00" fill="#000000">node_modules/log&#45;update/index.js</text>
</g>
<!-- lib/prompts/prompts.js&#45;&gt;node_modules/log&#45;update/index.js -->
<g id="edge30" class="edge">
<title>lib/prompts/prompts.js&#45;&gt;node_modules/log&#45;update/index.js</title>
<path fill="none" stroke="#000000" d="M1562.0295,-146.8186C1600.5668,-135.8947 1652.8506,-121.0741 1694.3572,-109.3084"/>
<polygon fill="#000000" stroke="#000000" points="1695.453,-112.6358 1704.1194,-106.5412 1693.5439,-105.9011 1695.453,-112.6358"/>
</g>
<!-- node_modules/node&#45;emoji/index.js -->
<g id="node26" class="node">
<title>node_modules/node&#45;emoji/index.js</title>
<ellipse fill="none" stroke="#000000" cx="2071.473" cy="-90" rx="147.0377" ry="18"/>
<text text-anchor="middle" x="2071.473" y="-85.8" font-family="Times,serif" font-size="14.00" fill="#000000">node_modules/node&#45;emoji/index.js</text>
</g>
<!-- lib/prompts/prompts.js&#45;&gt;node_modules/node&#45;emoji/index.js -->
<g id="edge31" class="edge">
<title>lib/prompts/prompts.js&#45;&gt;node_modules/node&#45;emoji/index.js</title>
<path fill="none" stroke="#000000" d="M1580.1456,-149.5693C1592.2558,-147.6082 1604.7116,-145.6771 1616.473,-144 1649.1466,-139.341 1830.678,-118.0283 1954.3327,-103.6124"/>
<polygon fill="#000000" stroke="#000000" points="1955.0921,-107.0477 1964.6196,-102.4135 1954.2817,-100.0947 1955.0921,-107.0477"/>
</g>
<!-- node_modules/cli&#45;marked/index.js -->
<g id="node22" class="node">
<title>node_modules/cli&#45;marked/index.js</title>
<ellipse fill="none" stroke="#000000" cx="2155.473" cy="-18" rx="144.727" ry="18"/>
<text text-anchor="middle" x="2155.473" y="-13.8" font-family="Times,serif" font-size="14.00" fill="#000000">node_modules/cli&#45;marked/index.js</text>
</g>
<!-- lib/markedCLI.js&#45;&gt;node_modules/cli&#45;marked/index.js -->
<g id="edge23" class="edge">
<title>lib/markedCLI.js&#45;&gt;node_modules/cli&#45;marked/index.js</title>
<path fill="none" stroke="#000000" d="M2278.0147,-73.8418C2255.9263,-63.7762 2227.2335,-50.701 2203.1657,-39.7334"/>
<polygon fill="#000000" stroke="#000000" points="2204.4031,-36.451 2193.852,-35.4891 2201.5003,-42.8208 2204.4031,-36.451"/>
</g>
<!-- node_modules/marked/lib/marked.js -->
<g id="node23" class="node">
<title>node_modules/marked/lib/marked.js</title>
<ellipse fill="none" stroke="#000000" cx="2470.473" cy="-18" rx="152.2512" ry="18"/>
<text text-anchor="middle" x="2470.473" y="-13.8" font-family="Times,serif" font-size="14.00" fill="#000000">node_modules/marked/lib/marked.js</text>
</g>
<!-- lib/markedCLI.js&#45;&gt;node_modules/marked/lib/marked.js -->
<g id="edge24" class="edge">
<title>lib/markedCLI.js&#45;&gt;node_modules/marked/lib/marked.js</title>
<path fill="none" stroke="#000000" d="M2348.7069,-73.8418C2370.6555,-63.7762 2399.1667,-50.701 2423.0822,-39.7334"/>
<polygon fill="#000000" stroke="#000000" points="2424.7063,-42.8391 2432.337,-35.4891 2421.7882,-36.4763 2424.7063,-42.8391"/>
</g>
</g>
</svg>
