<?xml version="1.0" encoding="UTF-8" standalone="no"?>
<!DOCTYPE svg PUBLIC "-//W3C//DTD SVG 1.1//EN"
 "http://www.w3.org/Graphics/SVG/1.1/DTD/svg11.dtd">
<!-- Generated by graphviz version 2.38.0 (20140413.2041)
 -->
<!-- Title: G Pages: 1 -->
<svg width="1042pt" height="510pt"
 viewBox="0.00 0.00 1042.20 510.20" xmlns="http://www.w3.org/2000/svg" xmlns:xlink="http://www.w3.org/1999/xlink">
<g id="graph0" class="graph" transform="scale(1 1) rotate(0) translate(21.6 488.6)">
<title>G</title>
<polygon fill="#232323" stroke="none" points="-21.6,21.6 -21.6,-488.6 1020.6,-488.6 1020.6,21.6 -21.6,21.6"/>
<!-- index.js -->
<g id="node1" class="node"><title>index.js</title>
<path fill="none" stroke="#eaeaea" d="M57.3333,-226C57.3333,-226 7.66667,-226 7.66667,-226 3.83333,-226 0,-222.167 0,-218.333 0,-218.333 0,-210.667 0,-210.667 0,-206.833 3.83333,-203 7.66667,-203 7.66667,-203 57.3333,-203 57.3333,-203 61.1667,-203 65,-206.833 65,-210.667 65,-210.667 65,-218.333 65,-218.333 65,-222.167 61.1667,-226 57.3333,-226"/>
<text text-anchor="middle" x="32.5" y="-210.8" font-family="Arial" font-size="14.00" fill="#eaeaea">index.js</text>
</g>
<!-- lib/executePublish.js -->
<g id="node2" class="node"><title>lib/executePublish.js</title>
<path fill="none" stroke="#eaeaea" d="M280.333,-385C280.333,-385 149.667,-385 149.667,-385 145.833,-385 142,-381.167 142,-377.333 142,-377.333 142,-369.667 142,-369.667 142,-365.833 145.833,-362 149.667,-362 149.667,-362 280.333,-362 280.333,-362 284.167,-362 288,-365.833 288,-369.667 288,-369.667 288,-377.333 288,-377.333 288,-381.167 284.167,-385 280.333,-385"/>
<text text-anchor="middle" x="215" y="-369.8" font-family="Arial" font-size="14.00" fill="#eaeaea">lib/executePublish.js</text>
</g>
<!-- index.js&#45;&gt;lib/executePublish.js -->
<g id="edge1" class="edge"><title>index.js&#45;&gt;lib/executePublish.js</title>
<path fill="none" stroke="#f8f8f8" d="M36.0144,-226.008C42.2396,-251.661 60.8591,-313.767 101,-345.5 110.228,-352.795 121.101,-358.221 132.394,-362.249"/>
<polygon fill="#f8f8f8" stroke="#f8f8f8" points="131.361,-365.594 141.952,-365.315 133.499,-358.928 131.361,-365.594"/>
</g>
<!-- lib/get.js -->
<g id="node3" class="node"><title>lib/get.js</title>
<path fill="none" stroke="#eaeaea" d="M241.833,-226C241.833,-226 188.167,-226 188.167,-226 184.333,-226 180.5,-222.167 180.5,-218.333 180.5,-218.333 180.5,-210.667 180.5,-210.667 180.5,-206.833 184.333,-203 188.167,-203 188.167,-203 241.833,-203 241.833,-203 245.667,-203 249.5,-206.833 249.5,-210.667 249.5,-210.667 249.5,-218.333 249.5,-218.333 249.5,-222.167 245.667,-226 241.833,-226"/>
<text text-anchor="middle" x="215" y="-210.8" font-family="Arial" font-size="14.00" fill="#eaeaea">lib/get.js</text>
</g>
<!-- index.js&#45;&gt;lib/get.js -->
<g id="edge2" class="edge"><title>index.js&#45;&gt;lib/get.js</title>
<path fill="none" stroke="#f8f8f8" d="M65.3543,-214.5C94.4865,-214.5 137.845,-214.5 170.226,-214.5"/>
<polygon fill="#f8f8f8" stroke="#f8f8f8" points="170.321,-218 180.321,-214.5 170.321,-211 170.321,-218"/>
</g>
<!-- lib/getConfig.js -->
<g id="node4" class="node"><title>lib/getConfig.js</title>
<path fill="none" stroke="#eaeaea" d="M262.833,-146C262.833,-146 167.167,-146 167.167,-146 163.333,-146 159.5,-142.167 159.5,-138.333 159.5,-138.333 159.5,-130.667 159.5,-130.667 159.5,-126.833 163.333,-123 167.167,-123 167.167,-123 262.833,-123 262.833,-123 266.667,-123 270.5,-126.833 270.5,-130.667 270.5,-130.667 270.5,-138.333 270.5,-138.333 270.5,-142.167 266.667,-146 262.833,-146"/>
<text text-anchor="middle" x="215" y="-130.8" font-family="Arial" font-size="14.00" fill="#eaeaea">lib/getConfig.js</text>
</g>
<!-- index.js&#45;&gt;lib/getConfig.js -->
<g id="edge3" class="edge"><title>index.js&#45;&gt;lib/getConfig.js</title>
<path fill="none" stroke="#f8f8f8" d="M44.8024,-202.742C57.3726,-190.363 78.843,-171.215 101,-160.5 116.008,-153.242 133.131,-147.959 149.43,-144.133"/>
<polygon fill="#f8f8f8" stroke="#f8f8f8" points="150.429,-147.497 159.446,-141.934 148.928,-140.66 150.429,-147.497"/>
</g>
<!-- lib/getDependenciesSVG.js -->
<g id="node5" class="node"><title>lib/getDependenciesSVG.js</title>
<path fill="none" stroke="#eaeaea" d="M303.833,-105C303.833,-105 126.167,-105 126.167,-105 122.333,-105 118.5,-101.167 118.5,-97.3333 118.5,-97.3333 118.5,-89.6667 118.5,-89.6667 118.5,-85.8333 122.333,-82 126.167,-82 126.167,-82 303.833,-82 303.833,-82 307.667,-82 311.5,-85.8333 311.5,-89.6667 311.5,-89.6667 311.5,-97.3333 311.5,-97.3333 311.5,-101.167 307.667,-105 303.833,-105"/>
<text text-anchor="middle" x="215" y="-89.8" font-family="Arial" font-size="14.00" fill="#eaeaea">lib/getDependenciesSVG.js</text>
</g>
<!-- index.js&#45;&gt;lib/getDependenciesSVG.js -->
<g id="edge4" class="edge"><title>index.js&#45;&gt;lib/getDependenciesSVG.js</title>
<path fill="none" stroke="#f8f8f8" d="M37.8745,-202.676C46.4365,-181.306 67.5443,-136.438 101,-114.5 103.925,-112.582 106.98,-110.828 110.132,-109.225"/>
<polygon fill="#f8f8f8" stroke="#f8f8f8" points="111.585,-112.409 119.25,-105.094 108.696,-106.033 111.585,-112.409"/>
</g>
<!-- lib/git/git.js -->
<g id="node6" class="node"><title>lib/git/git.js</title>
<path fill="none" stroke="#eaeaea" d="M545.333,-426C545.333,-426 477.667,-426 477.667,-426 473.833,-426 470,-422.167 470,-418.333 470,-418.333 470,-410.667 470,-410.667 470,-406.833 473.833,-403 477.667,-403 477.667,-403 545.333,-403 545.333,-403 549.167,-403 553,-406.833 553,-410.667 553,-410.667 553,-418.333 553,-418.333 553,-422.167 549.167,-426 545.333,-426"/>
<text text-anchor="middle" x="511.5" y="-410.8" font-family="Arial" font-size="14.00" fill="#eaeaea">lib/git/git.js</text>
</g>
<!-- index.js&#45;&gt;lib/git/git.js -->
<g id="edge5" class="edge"><title>index.js&#45;&gt;lib/git/git.js</title>
<path fill="none" stroke="#f8f8f8" d="M33.7925,-226.316C35.3204,-259.428 44.654,-353.382 101,-394.5 208.187,-472.719 376.418,-447.624 459.948,-428.205"/>
<polygon fill="#f8f8f8" stroke="#f8f8f8" points="460.793,-431.602 469.705,-425.872 459.165,-424.794 460.793,-431.602"/>
</g>
<!-- lib/npm/npmPublish.js -->
<g id="node7" class="node"><title>lib/npm/npmPublish.js</title>
<path fill="none" stroke="#cfffac" d="M581.333,-344C581.333,-344 441.667,-344 441.667,-344 437.833,-344 434,-340.167 434,-336.333 434,-336.333 434,-328.667 434,-328.667 434,-324.833 437.833,-321 441.667,-321 441.667,-321 581.333,-321 581.333,-321 585.167,-321 589,-324.833 589,-328.667 589,-328.667 589,-336.333 589,-336.333 589,-340.167 585.167,-344 581.333,-344"/>
<text text-anchor="middle" x="511.5" y="-328.8" font-family="Arial" font-size="14.00" fill="#cfffac">lib/npm/npmPublish.js</text>
</g>
<!-- index.js&#45;&gt;lib/npm/npmPublish.js -->
<g id="edge6" class="edge"><title>index.js&#45;&gt;lib/npm/npmPublish.js</title>
<path fill="none" stroke="#f8f8f8" d="M38.0619,-226.09C46.7919,-246.508 67.9795,-288.435 101,-306.5 154.602,-335.825 320.232,-337.524 423.691,-335.453"/>
<polygon fill="#f8f8f8" stroke="#f8f8f8" points="423.891,-338.95 433.813,-335.235 423.74,-331.952 423.891,-338.95"/>
</g>
<!-- lib/questions/release_questions.js -->
<g id="node8" class="node"><title>lib/questions/release_questions.js</title>
<path fill="none" stroke="#cfffac" d="M954.333,-326C954.333,-326 738.667,-326 738.667,-326 734.833,-326 731,-322.167 731,-318.333 731,-318.333 731,-310.667 731,-310.667 731,-306.833 734.833,-303 738.667,-303 738.667,-303 954.333,-303 954.333,-303 958.167,-303 962,-306.833 962,-310.667 962,-310.667 962,-318.333 962,-318.333 962,-322.167 958.167,-326 954.333,-326"/>
<text text-anchor="middle" x="846.5" y="-310.8" font-family="Arial" font-size="14.00" fill="#cfffac">lib/questions/release_questions.js</text>
</g>
<!-- index.js&#45;&gt;lib/questions/release_questions.js -->
<g id="edge7" class="edge"><title>index.js&#45;&gt;lib/questions/release_questions.js</title>
<path fill="none" stroke="#f8f8f8" d="M45.7196,-226.415C58.3879,-237.931 79.3401,-254.742 101,-262.5 157.613,-282.777 523.643,-300.991 720.549,-309.471"/>
<polygon fill="#f8f8f8" stroke="#f8f8f8" points="720.523,-312.973 730.664,-309.905 720.823,-305.98 720.523,-312.973"/>
</g>
<!-- lib/validateCommitMessage.js -->
<g id="node9" class="node"><title>lib/validateCommitMessage.js</title>
<path fill="none" stroke="#cfffac" d="M309.833,-64C309.833,-64 120.167,-64 120.167,-64 116.333,-64 112.5,-60.1667 112.5,-56.3333 112.5,-56.3333 112.5,-48.6667 112.5,-48.6667 112.5,-44.8333 116.333,-41 120.167,-41 120.167,-41 309.833,-41 309.833,-41 313.667,-41 317.5,-44.8333 317.5,-48.6667 317.5,-48.6667 317.5,-56.3333 317.5,-56.3333 317.5,-60.1667 313.667,-64 309.833,-64"/>
<text text-anchor="middle" x="215" y="-48.8" font-family="Arial" font-size="14.00" fill="#cfffac">lib/validateCommitMessage.js</text>
</g>
<!-- index.js&#45;&gt;lib/validateCommitMessage.js -->
<g id="edge8" class="edge"><title>index.js&#45;&gt;lib/validateCommitMessage.js</title>
<path fill="none" stroke="#f8f8f8" d="M35.4354,-202.778C40.6179,-175.36 57.4911,-106.853 101,-73.5 103.113,-71.8801 105.313,-70.372 107.585,-68.9685"/>
<polygon fill="#f8f8f8" stroke="#f8f8f8" points="109.539,-71.891 116.673,-64.058 106.211,-65.7325 109.539,-71.891"/>
</g>
<!-- node_modules/ansi&#45;colors/index.js -->
<g id="node10" class="node"><title>node_modules/ansi&#45;colors/index.js</title>
<path fill="none" stroke="#cfffac" d="M956.833,-285C956.833,-285 736.167,-285 736.167,-285 732.333,-285 728.5,-281.167 728.5,-277.333 728.5,-277.333 728.5,-269.667 728.5,-269.667 728.5,-265.833 732.333,-262 736.167,-262 736.167,-262 956.833,-262 956.833,-262 960.667,-262 964.5,-265.833 964.5,-269.667 964.5,-269.667 964.5,-277.333 964.5,-277.333 964.5,-281.167 960.667,-285 956.833,-285"/>
<text text-anchor="middle" x="846.5" y="-269.8" font-family="Arial" font-size="14.00" fill="#cfffac">node_modules/ansi&#45;colors/index.js</text>
</g>
<!-- index.js&#45;&gt;node_modules/ansi&#45;colors/index.js -->
<g id="edge9" class="edge"><title>index.js&#45;&gt;node_modules/ansi&#45;colors/index.js</title>
<path fill="none" stroke="#f8f8f8" d="M65.0266,-226.103C76.2335,-229.746 89.0383,-233.369 101,-235.5 315.232,-273.667 569.207,-278.091 718.308,-276.632"/>
<polygon fill="#f8f8f8" stroke="#f8f8f8" points="718.456,-280.13 728.418,-276.522 718.38,-273.131 718.456,-280.13"/>
</g>
<!-- node_modules/inquirer/lib/inquirer.js -->
<g id="node11" class="node"><title>node_modules/inquirer/lib/inquirer.js</title>
<path fill="none" stroke="#cfffac" d="M961.333,-80C961.333,-80 731.667,-80 731.667,-80 727.833,-80 724,-76.1667 724,-72.3333 724,-72.3333 724,-64.6667 724,-64.6667 724,-60.8333 727.833,-57 731.667,-57 731.667,-57 961.333,-57 961.333,-57 965.167,-57 969,-60.8333 969,-64.6667 969,-64.6667 969,-72.3333 969,-72.3333 969,-76.1667 965.167,-80 961.333,-80"/>
<text text-anchor="middle" x="846.5" y="-64.8" font-family="Arial" font-size="14.00" fill="#cfffac">node_modules/inquirer/lib/inquirer.js</text>
</g>
<!-- index.js&#45;&gt;node_modules/inquirer/lib/inquirer.js -->
<g id="edge10" class="edge"><title>index.js&#45;&gt;node_modules/inquirer/lib/inquirer.js</title>
<path fill="none" stroke="#f8f8f8" d="M65.0885,-203.59C76.3008,-200.133 89.0932,-196.654 101,-194.5 223.099,-172.41 553.582,-222.529 658,-155.5 686.118,-137.45 666.51,-108.493 694,-89.5 700.233,-85.1936 706.959,-81.5862 713.989,-78.5755"/>
<polygon fill="#f8f8f8" stroke="#f8f8f8" points="715.666,-81.6809 723.748,-74.8304 713.158,-75.1456 715.666,-81.6809"/>
</g>
<!-- node_modules/semver/semver.js -->
<g id="node12" class="node"><title>node_modules/semver/semver.js</title>
<path fill="none" stroke="#cfffac" d="M321.333,-23C321.333,-23 108.667,-23 108.667,-23 104.833,-23 101,-19.1667 101,-15.3333 101,-15.3333 101,-7.66667 101,-7.66667 101,-3.83333 104.833,-0 108.667,-0 108.667,-0 321.333,-0 321.333,-0 325.167,-0 329,-3.83333 329,-7.66667 329,-7.66667 329,-15.3333 329,-15.3333 329,-19.1667 325.167,-23 321.333,-23"/>
<text text-anchor="middle" x="215" y="-7.8" font-family="Arial" font-size="14.00" fill="#cfffac">node_modules/semver/semver.js</text>
</g>
<!-- index.js&#45;&gt;node_modules/semver/semver.js -->
<g id="edge11" class="edge"><title>index.js&#45;&gt;node_modules/semver/semver.js</title>
<path fill="none" stroke="#f8f8f8" d="M33.9994,-202.85C36.072,-170.141 46.7008,-76.8934 101,-31.5 102.218,-30.4817 103.47,-29.5075 104.752,-28.5755"/>
<polygon fill="#f8f8f8" stroke="#f8f8f8" points="107.004,-31.2946 113.62,-23.0193 103.288,-25.3627 107.004,-31.2946"/>
</g>
<!-- lib/executePublish.js&#45;&gt;lib/git/git.js -->
<g id="edge13" class="edge"><title>lib/executePublish.js&#45;&gt;lib/git/git.js</title>
<path fill="none" stroke="#f8f8f8" d="M288.368,-383.75C312.715,-387.185 340.031,-391.024 365,-394.5 396.489,-398.883 431.821,-403.741 459.782,-407.572"/>
<polygon fill="#f8f8f8" stroke="#f8f8f8" points="459.346,-411.045 469.729,-408.934 460.296,-404.109 459.346,-411.045"/>
</g>
<!-- lib/executePublish.js&#45;&gt;lib/npm/npmPublish.js -->
<g id="edge14" class="edge"><title>lib/executePublish.js&#45;&gt;lib/npm/npmPublish.js</title>
<path fill="none" stroke="#f8f8f8" d="M288.043,-363.47C329.039,-357.763 380.666,-350.575 423.862,-344.562"/>
<polygon fill="#f8f8f8" stroke="#f8f8f8" points="424.372,-348.024 433.794,-343.179 423.407,-341.091 424.372,-348.024"/>
</g>
<!-- lib/addReleaseNotes.js -->
<g id="node13" class="node"><title>lib/addReleaseNotes.js</title>
<path fill="none" stroke="#cfffac" d="M585.833,-385C585.833,-385 437.167,-385 437.167,-385 433.333,-385 429.5,-381.167 429.5,-377.333 429.5,-377.333 429.5,-369.667 429.5,-369.667 429.5,-365.833 433.333,-362 437.167,-362 437.167,-362 585.833,-362 585.833,-362 589.667,-362 593.5,-365.833 593.5,-369.667 593.5,-369.667 593.5,-377.333 593.5,-377.333 593.5,-381.167 589.667,-385 585.833,-385"/>
<text text-anchor="middle" x="511.5" y="-369.8" font-family="Arial" font-size="14.00" fill="#cfffac">lib/addReleaseNotes.js</text>
</g>
<!-- lib/executePublish.js&#45;&gt;lib/addReleaseNotes.js -->
<g id="edge12" class="edge"><title>lib/executePublish.js&#45;&gt;lib/addReleaseNotes.js</title>
<path fill="none" stroke="#f8f8f8" d="M288.043,-373.5C327.612,-373.5 377.086,-373.5 419.324,-373.5"/>
<polygon fill="#f8f8f8" stroke="#f8f8f8" points="419.334,-377 429.334,-373.5 419.334,-370 419.334,-377"/>
</g>
<!-- lib/prompts/prompts.js -->
<g id="node14" class="node"><title>lib/prompts/prompts.js</title>
<path fill="none" stroke="#eaeaea" d="M582.833,-226C582.833,-226 440.167,-226 440.167,-226 436.333,-226 432.5,-222.167 432.5,-218.333 432.5,-218.333 432.5,-210.667 432.5,-210.667 432.5,-206.833 436.333,-203 440.167,-203 440.167,-203 582.833,-203 582.833,-203 586.667,-203 590.5,-206.833 590.5,-210.667 590.5,-210.667 590.5,-218.333 590.5,-218.333 590.5,-222.167 586.667,-226 582.833,-226"/>
<text text-anchor="middle" x="511.5" y="-210.8" font-family="Arial" font-size="14.00" fill="#eaeaea">lib/prompts/prompts.js</text>
</g>
<!-- lib/get.js&#45;&gt;lib/prompts/prompts.js -->
<g id="edge15" class="edge"><title>lib/get.js&#45;&gt;lib/prompts/prompts.js</title>
<path fill="none" stroke="#f8f8f8" d="M249.783,-214.5C291.472,-214.5 363.951,-214.5 421.923,-214.5"/>
<polygon fill="#f8f8f8" stroke="#f8f8f8" points="422.199,-218 432.199,-214.5 422.199,-211 422.199,-218"/>
</g>
<!-- node_modules/configstore/index.js -->
<g id="node15" class="node"><title>node_modules/configstore/index.js</title>
<path fill="none" stroke="#cfffac" d="M623.333,-146C623.333,-146 399.667,-146 399.667,-146 395.833,-146 392,-142.167 392,-138.333 392,-138.333 392,-130.667 392,-130.667 392,-126.833 395.833,-123 399.667,-123 399.667,-123 623.333,-123 623.333,-123 627.167,-123 631,-126.833 631,-130.667 631,-130.667 631,-138.333 631,-138.333 631,-142.167 627.167,-146 623.333,-146"/>
<text text-anchor="middle" x="511.5" y="-130.8" font-family="Arial" font-size="14.00" fill="#cfffac">node_modules/configstore/index.js</text>
</g>
<!-- lib/getConfig.js&#45;&gt;node_modules/configstore/index.js -->
<g id="edge16" class="edge"><title>lib/getConfig.js&#45;&gt;node_modules/configstore/index.js</title>
<path fill="none" stroke="#f8f8f8" d="M270.703,-134.5C301.93,-134.5 342.494,-134.5 381.351,-134.5"/>
<polygon fill="#f8f8f8" stroke="#f8f8f8" points="381.719,-138 391.719,-134.5 381.719,-131 381.719,-138"/>
</g>
<!-- node_modules/@mithray/analyze&#45;js/index.js -->
<g id="node16" class="node"><title>node_modules/@mithray/analyze&#45;js/index.js</title>
<path fill="none" stroke="#cfffac" d="M650.333,-105C650.333,-105 372.667,-105 372.667,-105 368.833,-105 365,-101.167 365,-97.3333 365,-97.3333 365,-89.6667 365,-89.6667 365,-85.8333 368.833,-82 372.667,-82 372.667,-82 650.333,-82 650.333,-82 654.167,-82 658,-85.8333 658,-89.6667 658,-89.6667 658,-97.3333 658,-97.3333 658,-101.167 654.167,-105 650.333,-105"/>
<text text-anchor="middle" x="511.5" y="-89.8" font-family="Arial" font-size="14.00" fill="#cfffac">node_modules/@mithray/analyze&#45;js/index.js</text>
</g>
<!-- lib/getDependenciesSVG.js&#45;&gt;node_modules/@mithray/analyze&#45;js/index.js -->
<g id="edge17" class="edge"><title>lib/getDependenciesSVG.js&#45;&gt;node_modules/@mithray/analyze&#45;js/index.js</title>
<path fill="none" stroke="#f8f8f8" d="M311.616,-93.5C325.467,-93.5 340.015,-93.5 354.678,-93.5"/>
<polygon fill="#f8f8f8" stroke="#f8f8f8" points="354.84,-97.0001 364.84,-93.5 354.84,-90.0001 354.84,-97.0001"/>
</g>
<!-- lib/git/gitAdd.js -->
<g id="node17" class="node"><title>lib/git/gitAdd.js</title>
<path fill="none" stroke="#cfffac" d="M893.333,-467C893.333,-467 799.667,-467 799.667,-467 795.833,-467 792,-463.167 792,-459.333 792,-459.333 792,-451.667 792,-451.667 792,-447.833 795.833,-444 799.667,-444 799.667,-444 893.333,-444 893.333,-444 897.167,-444 901,-447.833 901,-451.667 901,-451.667 901,-459.333 901,-459.333 901,-463.167 897.167,-467 893.333,-467"/>
<text text-anchor="middle" x="846.5" y="-451.8" font-family="Arial" font-size="14.00" fill="#cfffac">lib/git/gitAdd.js</text>
</g>
<!-- lib/git/git.js&#45;&gt;lib/git/gitAdd.js -->
<g id="edge18" class="edge"><title>lib/git/git.js&#45;&gt;lib/git/gitAdd.js</title>
<path fill="none" stroke="#f8f8f8" d="M553.332,-419.527C610.406,-426.555 714.581,-439.381 781.879,-447.667"/>
<polygon fill="#f8f8f8" stroke="#f8f8f8" points="781.587,-451.157 791.94,-448.906 782.443,-444.21 781.587,-451.157"/>
</g>
<!-- lib/git/gitCommit.js -->
<g id="node18" class="node"><title>lib/git/gitCommit.js</title>
<path fill="none" stroke="#cfffac" d="M904.833,-426C904.833,-426 788.167,-426 788.167,-426 784.333,-426 780.5,-422.167 780.5,-418.333 780.5,-418.333 780.5,-410.667 780.5,-410.667 780.5,-406.833 784.333,-403 788.167,-403 788.167,-403 904.833,-403 904.833,-403 908.667,-403 912.5,-406.833 912.5,-410.667 912.5,-410.667 912.5,-418.333 912.5,-418.333 912.5,-422.167 908.667,-426 904.833,-426"/>
<text text-anchor="middle" x="846.5" y="-410.8" font-family="Arial" font-size="14.00" fill="#cfffac">lib/git/gitCommit.js</text>
</g>
<!-- lib/git/git.js&#45;&gt;lib/git/gitCommit.js -->
<g id="edge19" class="edge"><title>lib/git/git.js&#45;&gt;lib/git/gitCommit.js</title>
<path fill="none" stroke="#f8f8f8" d="M553.332,-414.5C607.185,-414.5 702.972,-414.5 770.147,-414.5"/>
<polygon fill="#f8f8f8" stroke="#f8f8f8" points="770.256,-418 780.256,-414.5 770.256,-411 770.256,-418"/>
</g>
<!-- lib/git/gitPush.js -->
<g id="node19" class="node"><title>lib/git/gitPush.js</title>
<path fill="none" stroke="#cfffac" d="M896.333,-385C896.333,-385 796.667,-385 796.667,-385 792.833,-385 789,-381.167 789,-377.333 789,-377.333 789,-369.667 789,-369.667 789,-365.833 792.833,-362 796.667,-362 796.667,-362 896.333,-362 896.333,-362 900.167,-362 904,-365.833 904,-369.667 904,-369.667 904,-377.333 904,-377.333 904,-381.167 900.167,-385 896.333,-385"/>
<text text-anchor="middle" x="846.5" y="-369.8" font-family="Arial" font-size="14.00" fill="#cfffac">lib/git/gitPush.js</text>
</g>
<!-- lib/git/git.js&#45;&gt;lib/git/gitPush.js -->
<g id="edge20" class="edge"><title>lib/git/git.js&#45;&gt;lib/git/gitPush.js</title>
<path fill="none" stroke="#f8f8f8" d="M553.332,-409.473C609.498,-402.557 711.276,-390.026 778.637,-381.732"/>
<polygon fill="#f8f8f8" stroke="#f8f8f8" points="779.231,-385.186 788.728,-380.49 778.375,-378.238 779.231,-385.186"/>
</g>
<!-- lib/prompts/prompts.js&#45;&gt;lib/questions/release_questions.js -->
<g id="edge22" class="edge"><title>lib/prompts/prompts.js&#45;&gt;lib/questions/release_questions.js</title>
<path fill="none" stroke="#f8f8f8" d="M538.798,-226.031C567.95,-238.822 616.356,-260.087 658,-278.5 674.014,-285.58 677.148,-289.75 694,-294.5 702.72,-296.958 711.809,-299.116 721.014,-301.01"/>
<polygon fill="#f8f8f8" stroke="#f8f8f8" points="720.551,-304.486 731.036,-302.964 721.891,-297.615 720.551,-304.486"/>
</g>
<!-- lib/prompts/prompts.js&#45;&gt;node_modules/ansi&#45;colors/index.js -->
<g id="edge24" class="edge"><title>lib/prompts/prompts.js&#45;&gt;node_modules/ansi&#45;colors/index.js</title>
<path fill="none" stroke="#f8f8f8" d="M590.815,-225.981C612.724,-229.872 636.435,-234.724 658,-240.5 674.432,-244.901 677.472,-249.475 694,-253.5 704.46,-256.047 715.41,-258.29 726.432,-260.26"/>
<polygon fill="#f8f8f8" stroke="#f8f8f8" points="726.116,-263.756 736.563,-261.993 727.297,-256.857 726.116,-263.756"/>
</g>
<!-- lib/prompts/prompts.js&#45;&gt;node_modules/inquirer/lib/inquirer.js -->
<g id="edge25" class="edge"><title>lib/prompts/prompts.js&#45;&gt;node_modules/inquirer/lib/inquirer.js</title>
<path fill="none" stroke="#f8f8f8" d="M590.626,-215.206C614.5,-211.82 639.346,-204.194 658,-188.5 693.826,-158.359 657.591,-118.935 694,-89.5 700.243,-84.4526 707.125,-80.3045 714.407,-76.9137"/>
<polygon fill="#f8f8f8" stroke="#f8f8f8" points="715.927,-80.0725 723.828,-73.013 713.249,-73.605 715.927,-80.0725"/>
</g>
<!-- lib/questions/hints.js -->
<g id="node20" class="node"><title>lib/questions/hints.js</title>
<path fill="none" stroke="#cfffac" d="M910.333,-162C910.333,-162 782.667,-162 782.667,-162 778.833,-162 775,-158.167 775,-154.333 775,-154.333 775,-146.667 775,-146.667 775,-142.833 778.833,-139 782.667,-139 782.667,-139 910.333,-139 910.333,-139 914.167,-139 918,-142.833 918,-146.667 918,-146.667 918,-154.333 918,-154.333 918,-158.167 914.167,-162 910.333,-162"/>
<text text-anchor="middle" x="846.5" y="-146.8" font-family="Arial" font-size="14.00" fill="#cfffac">lib/questions/hints.js</text>
</g>
<!-- lib/prompts/prompts.js&#45;&gt;lib/questions/hints.js -->
<g id="edge21" class="edge"><title>lib/prompts/prompts.js&#45;&gt;lib/questions/hints.js</title>
<path fill="none" stroke="#f8f8f8" d="M590.826,-204.411C612.845,-200.526 636.61,-195.328 658,-188.5 674.856,-183.119 677.042,-176.551 694,-171.5 716.501,-164.799 741.531,-160.221 764.659,-157.1"/>
<polygon fill="#f8f8f8" stroke="#f8f8f8" points="765.31,-160.546 774.787,-155.808 764.425,-153.602 765.31,-160.546"/>
</g>
<!-- node_modules/@mithray/md&#45;terminal/index.js -->
<g id="node21" class="node"><title>node_modules/@mithray/md&#45;terminal/index.js</title>
<path fill="none" stroke="#cfffac" d="M991.333,-121C991.333,-121 701.667,-121 701.667,-121 697.833,-121 694,-117.167 694,-113.333 694,-113.333 694,-105.667 694,-105.667 694,-101.833 697.833,-98 701.667,-98 701.667,-98 991.333,-98 991.333,-98 995.167,-98 999,-101.833 999,-105.667 999,-105.667 999,-113.333 999,-113.333 999,-117.167 995.167,-121 991.333,-121"/>
<text text-anchor="middle" x="846.5" y="-105.8" font-family="Arial" font-size="14.00" fill="#cfffac">node_modules/@mithray/md&#45;terminal/index.js</text>
</g>
<!-- lib/prompts/prompts.js&#45;&gt;node_modules/@mithray/md&#45;terminal/index.js -->
<g id="edge23" class="edge"><title>lib/prompts/prompts.js&#45;&gt;node_modules/@mithray/md&#45;terminal/index.js</title>
<path fill="none" stroke="#f8f8f8" d="M590.702,-212.537C613.913,-208.915 638.357,-201.825 658,-188.5 683.108,-171.468 668.564,-147.038 694,-130.5 696.783,-128.691 699.655,-127.008 702.601,-125.444"/>
<polygon fill="#f8f8f8" stroke="#f8f8f8" points="704.148,-128.584 711.647,-121.099 701.117,-122.274 704.148,-128.584"/>
</g>
<!-- node_modules/log&#45;update/index.js -->
<g id="node22" class="node"><title>node_modules/log&#45;update/index.js</title>
<path fill="none" stroke="#cfffac" d="M956.333,-244C956.333,-244 736.667,-244 736.667,-244 732.833,-244 729,-240.167 729,-236.333 729,-236.333 729,-228.667 729,-228.667 729,-224.833 732.833,-221 736.667,-221 736.667,-221 956.333,-221 956.333,-221 960.167,-221 964,-224.833 964,-228.667 964,-228.667 964,-236.333 964,-236.333 964,-240.167 960.167,-244 956.333,-244"/>
<text text-anchor="middle" x="846.5" y="-228.8" font-family="Arial" font-size="14.00" fill="#cfffac">node_modules/log&#45;update/index.js</text>
</g>
<!-- lib/prompts/prompts.js&#45;&gt;node_modules/log&#45;update/index.js -->
<g id="edge26" class="edge"><title>lib/prompts/prompts.js&#45;&gt;node_modules/log&#45;update/index.js</title>
<path fill="none" stroke="#f8f8f8" d="M590.574,-218.72C628.739,-220.783 675.637,-223.318 718.757,-225.649"/>
<polygon fill="#f8f8f8" stroke="#f8f8f8" points="718.584,-229.145 728.759,-226.19 718.962,-222.155 718.584,-229.145"/>
</g>
<!-- node_modules/node&#45;emoji/index.js -->
<g id="node23" class="node"><title>node_modules/node&#45;emoji/index.js</title>
<path fill="none" stroke="#cfffac" d="M958.333,-203C958.333,-203 734.667,-203 734.667,-203 730.833,-203 727,-199.167 727,-195.333 727,-195.333 727,-187.667 727,-187.667 727,-183.833 730.833,-180 734.667,-180 734.667,-180 958.333,-180 958.333,-180 962.167,-180 966,-183.833 966,-187.667 966,-187.667 966,-195.333 966,-195.333 966,-199.167 962.167,-203 958.333,-203"/>
<text text-anchor="middle" x="846.5" y="-187.8" font-family="Arial" font-size="14.00" fill="#cfffac">node_modules/node&#45;emoji/index.js</text>
</g>
<!-- lib/prompts/prompts.js&#45;&gt;node_modules/node&#45;emoji/index.js -->
<g id="edge27" class="edge"><title>lib/prompts/prompts.js&#45;&gt;node_modules/node&#45;emoji/index.js</title>
<path fill="none" stroke="#f8f8f8" d="M590.574,-209.108C628.125,-206.514 674.13,-203.336 716.672,-200.398"/>
<polygon fill="#f8f8f8" stroke="#f8f8f8" points="717.096,-203.877 726.831,-199.696 716.613,-196.894 717.096,-203.877"/>
</g>
</g>
</svg>
