<?xml version="1.0" encoding="UTF-8" standalone="no"?>
<!DOCTYPE svg PUBLIC "-//W3C//DTD SVG 1.1//EN"
 "http://www.w3.org/Graphics/SVG/1.1/DTD/svg11.dtd">
<!-- Generated by graphviz version 2.40.1 (20161225.0304)
 -->
<!-- Title: G Pages: 1 -->
<svg width="2472pt" height="332pt"
 viewBox="0.00 0.00 2471.85 332.00" xmlns="http://www.w3.org/2000/svg" xmlns:xlink="http://www.w3.org/1999/xlink">
<g id="graph0" class="graph" transform="scale(1 1) rotate(0) translate(4 328)">
<title>G</title>
<polygon fill="#ffffff" stroke="transparent" points="-4,4 -4,-328 2467.8486,-328 2467.8486,4 -4,4"/>
<!-- index.js -->
<g id="node1" class="node">
<title>index.js</title>
<ellipse fill="none" stroke="#000000" cx="1090.473" cy="-306" rx="41.1922" ry="18"/>
<text text-anchor="middle" x="1090.473" y="-301.8" font-family="Times,serif" font-size="14.00" fill="#000000">index.js</text>
</g>
<!-- lib/executePublish.js -->
<g id="node2" class="node">
<title>lib/executePublish.js</title>
<ellipse fill="none" stroke="#000000" cx="767.473" cy="-234" rx="91.4677" ry="18"/>
<text text-anchor="middle" x="767.473" y="-229.8" font-family="Times,serif" font-size="14.00" fill="#000000">lib/executePublish.js</text>
</g>
<!-- index.js&#45;&gt;lib/executePublish.js -->
<g id="edge1" class="edge">
<title>index.js&#45;&gt;lib/executePublish.js</title>
<path fill="none" stroke="#000000" d="M1053.4208,-297.7407C1001.0138,-286.0586 904.245,-264.4879 837.9157,-249.7024"/>
<polygon fill="#000000" stroke="#000000" points="838.4734,-246.2409 827.9515,-247.4813 836.9504,-253.0732 838.4734,-246.2409"/>
</g>
<!-- lib/get.js -->
<g id="node3" class="node">
<title>lib/get.js</title>
<ellipse fill="none" stroke="#000000" cx="1163.473" cy="-234" rx="44.6367" ry="18"/>
<text text-anchor="middle" x="1163.473" y="-229.8" font-family="Times,serif" font-size="14.00" fill="#000000">lib/get.js</text>
</g>
<!-- index.js&#45;&gt;lib/get.js -->
<g id="edge2" class="edge">
<title>index.js&#45;&gt;lib/get.js</title>
<path fill="none" stroke="#000000" d="M1107.4042,-289.3008C1116.8263,-280.0077 1128.7185,-268.2784 1139.1237,-258.0158"/>
<polygon fill="#000000" stroke="#000000" points="1141.7189,-260.3721 1146.3808,-250.8581 1136.8034,-255.3883 1141.7189,-260.3721"/>
</g>
<!-- lib/getConfig.js -->
<g id="node4" class="node">
<title>lib/getConfig.js</title>
<ellipse fill="none" stroke="#000000" cx="1297.473" cy="-234" rx="71.285" ry="18"/>
<text text-anchor="middle" x="1297.473" y="-229.8" font-family="Times,serif" font-size="14.00" fill="#000000">lib/getConfig.js</text>
</g>
<!-- index.js&#45;&gt;lib/getConfig.js -->
<g id="edge3" class="edge">
<title>index.js&#45;&gt;lib/getConfig.js</title>
<path fill="none" stroke="#000000" d="M1122.8168,-294.75C1155.7318,-283.3013 1207.256,-265.3798 1245.8263,-251.9641"/>
<polygon fill="#000000" stroke="#000000" points="1247.0389,-255.2481 1255.334,-248.6571 1244.7392,-248.6366 1247.0389,-255.2481"/>
</g>
<!-- lib/getDependenciesSVG.js -->
<g id="node5" class="node">
<title>lib/getDependenciesSVG.js</title>
<ellipse fill="none" stroke="#000000" cx="1504.473" cy="-234" rx="118.0748" ry="18"/>
<text text-anchor="middle" x="1504.473" y="-229.8" font-family="Times,serif" font-size="14.00" fill="#000000">lib/getDependenciesSVG.js</text>
</g>
<!-- index.js&#45;&gt;lib/getDependenciesSVG.js -->
<g id="edge4" class="edge">
<title>index.js&#45;&gt;lib/getDependenciesSVG.js</title>
<path fill="none" stroke="#000000" d="M1129.0494,-299.2911C1194.1862,-287.9629 1327.5565,-264.7681 1416.5067,-249.2985"/>
<polygon fill="#000000" stroke="#000000" points="1417.3343,-252.7072 1426.5866,-247.5455 1416.1348,-245.8107 1417.3343,-252.7072"/>
</g>
<!-- lib/git/git.js -->
<g id="node6" class="node">
<title>lib/git/git.js</title>
<ellipse fill="none" stroke="#000000" cx="430.473" cy="-162" rx="55.6899" ry="18"/>
<text text-anchor="middle" x="430.473" y="-157.8" font-family="Times,serif" font-size="14.00" fill="#000000">lib/git/git.js</text>
</g>
<!-- index.js&#45;&gt;lib/git/git.js -->
<g id="edge5" class="edge">
<title>index.js&#45;&gt;lib/git/git.js</title>
<path fill="none" stroke="#000000" d="M1049.3423,-303.9737C973.0414,-299.5075 804.8356,-286.3364 667.473,-252 596.5674,-234.2758 517.9273,-201.6763 471.4221,-180.9578"/>
<polygon fill="#000000" stroke="#000000" points="472.8373,-177.7566 462.281,-176.8536 469.9701,-184.1425 472.8373,-177.7566"/>
</g>
<!-- lib/npm/npmPublish.js -->
<g id="node7" class="node">
<title>lib/npm/npmPublish.js</title>
<ellipse fill="none" stroke="#000000" cx="887.473" cy="-162" rx="98.5364" ry="18"/>
<text text-anchor="middle" x="887.473" y="-157.8" font-family="Times,serif" font-size="14.00" fill="#000000">lib/npm/npmPublish.js</text>
</g>
<!-- index.js&#45;&gt;lib/npm/npmPublish.js -->
<g id="edge6" class="edge">
<title>index.js&#45;&gt;lib/npm/npmPublish.js</title>
<path fill="none" stroke="#000000" d="M1064.6936,-291.7424C1046.3851,-281.3275 1021.4336,-266.5408 1000.473,-252 970.5575,-231.247 938.2326,-205.0892 915.8511,-186.3301"/>
<polygon fill="#000000" stroke="#000000" points="917.9797,-183.5468 908.078,-179.7774 913.4679,-188.8988 917.9797,-183.5468"/>
</g>
<!-- lib/questions/release_questions.js -->
<g id="node8" class="node">
<title>lib/questions/release_questions.js</title>
<ellipse fill="none" stroke="#000000" cx="663.473" cy="-90" rx="140.0815" ry="18"/>
<text text-anchor="middle" x="663.473" y="-85.8" font-family="Times,serif" font-size="14.00" fill="#000000">lib/questions/release_questions.js</text>
</g>
<!-- index.js&#45;&gt;lib/questions/release_questions.js -->
<g id="edge7" class="edge">
<title>index.js&#45;&gt;lib/questions/release_questions.js</title>
<path fill="none" stroke="#000000" d="M1079.6506,-288.5633C1073.1493,-278.0216 1064.7532,-264.2884 1057.473,-252 1029.2622,-204.3822 1040.9821,-175.4998 995.473,-144 977.3838,-131.4793 865.5529,-114.988 776.6088,-103.5391"/>
<polygon fill="#000000" stroke="#000000" points="776.797,-100.0348 766.4339,-102.2384 775.9093,-106.9783 776.797,-100.0348"/>
</g>
<!-- lib/validateCommitMessage.js -->
<g id="node9" class="node">
<title>lib/validateCommitMessage.js</title>
<ellipse fill="none" stroke="#000000" cx="1769.473" cy="-234" rx="128.5638" ry="18"/>
<text text-anchor="middle" x="1769.473" y="-229.8" font-family="Times,serif" font-size="14.00" fill="#000000">lib/validateCommitMessage.js</text>
</g>
<!-- index.js&#45;&gt;lib/validateCommitMessage.js -->
<g id="edge8" class="edge">
<title>index.js&#45;&gt;lib/validateCommitMessage.js</title>
<path fill="none" stroke="#000000" d="M1131.2378,-302.3552C1221.4691,-294.1946 1444.8682,-273.4779 1631.473,-252 1642.7047,-250.7073 1654.441,-249.2857 1666.1222,-247.8257"/>
<polygon fill="#000000" stroke="#000000" points="1666.8757,-251.2584 1676.3593,-246.5349 1666,-244.3134 1666.8757,-251.2584"/>
</g>
<!-- node_modules/ansi&#45;colors/index.js -->
<g id="node10" class="node">
<title>node_modules/ansi&#45;colors/index.js</title>
<ellipse fill="none" stroke="#000000" cx="966.473" cy="-90" rx="145.3085" ry="18"/>
<text text-anchor="middle" x="966.473" y="-85.8" font-family="Times,serif" font-size="14.00" fill="#000000">node_modules/ansi&#45;colors/index.js</text>
</g>
<!-- index.js&#45;&gt;node_modules/ansi&#45;colors/index.js -->
<g id="edge9" class="edge">
<title>index.js&#45;&gt;node_modules/ansi&#45;colors/index.js</title>
<path fill="none" stroke="#000000" d="M1084.8187,-288.0265C1073.0194,-251.1405 1045.463,-168.3149 1028.473,-144 1020.796,-133.0132 1010.4095,-122.8212 1000.334,-114.3191"/>
<polygon fill="#000000" stroke="#000000" points="1002.353,-111.4505 992.378,-107.8799 997.9492,-116.8917 1002.353,-111.4505"/>
</g>
<!-- node_modules/inquirer/lib/inquirer.js -->
<g id="node11" class="node">
<title>node_modules/inquirer/lib/inquirer.js</title>
<ellipse fill="none" stroke="#000000" cx="1285.473" cy="-90" rx="155.6981" ry="18"/>
<text text-anchor="middle" x="1285.473" y="-85.8" font-family="Times,serif" font-size="14.00" fill="#000000">node_modules/inquirer/lib/inquirer.js</text>
</g>
<!-- index.js&#45;&gt;node_modules/inquirer/lib/inquirer.js -->
<g id="edge10" class="edge">
<title>index.js&#45;&gt;node_modules/inquirer/lib/inquirer.js</title>
<path fill="none" stroke="#000000" d="M1090.9342,-287.9218C1092.807,-254.4164 1101.7659,-182.5828 1143.473,-144 1160.0949,-128.6233 1181.5382,-117.4869 1202.6998,-109.4761"/>
<polygon fill="#000000" stroke="#000000" points="1204.1478,-112.6753 1212.3845,-106.0114 1201.7899,-106.0844 1204.1478,-112.6753"/>
</g>
<!-- node_modules/semver/semver.js -->
<g id="node12" class="node">
<title>node_modules/semver/semver.js</title>
<ellipse fill="none" stroke="#000000" cx="2053.473" cy="-234" rx="137.2008" ry="18"/>
<text text-anchor="middle" x="2053.473" y="-229.8" font-family="Times,serif" font-size="14.00" fill="#000000">node_modules/semver/semver.js</text>
</g>
<!-- index.js&#45;&gt;node_modules/semver/semver.js -->
<g id="edge11" class="edge">
<title>index.js&#45;&gt;node_modules/semver/semver.js</title>
<path fill="none" stroke="#000000" d="M1131.7716,-304.0993C1251.7573,-298.3987 1610.6396,-280.0849 1907.473,-252 1920.0349,-250.8115 1933.186,-249.4113 1946.231,-247.9253"/>
<polygon fill="#000000" stroke="#000000" points="1946.6432,-251.4011 1956.1744,-246.7744 1945.8383,-244.4475 1946.6432,-251.4011"/>
</g>
<!-- lib/executePublish.js&#45;&gt;lib/git/git.js -->
<g id="edge13" class="edge">
<title>lib/executePublish.js&#45;&gt;lib/git/git.js</title>
<path fill="none" stroke="#000000" d="M705.2693,-220.7102C642.8845,-207.3817 547.6433,-187.0334 487.2524,-174.1309"/>
<polygon fill="#000000" stroke="#000000" points="487.645,-170.6359 477.1344,-171.9692 486.1824,-177.4814 487.645,-170.6359"/>
</g>
<!-- lib/executePublish.js&#45;&gt;lib/npm/npmPublish.js -->
<g id="edge14" class="edge">
<title>lib/executePublish.js&#45;&gt;lib/npm/npmPublish.js</title>
<path fill="none" stroke="#000000" d="M796.216,-216.7542C812.2764,-207.118 832.4821,-194.9945 849.7957,-184.6064"/>
<polygon fill="#000000" stroke="#000000" points="851.7745,-187.5008 858.5487,-179.3546 848.173,-181.4984 851.7745,-187.5008"/>
</g>
<!-- lib/addReleaseNotes.js -->
<g id="node13" class="node">
<title>lib/addReleaseNotes.js</title>
<ellipse fill="none" stroke="#000000" cx="671.473" cy="-162" rx="99.0311" ry="18"/>
<text text-anchor="middle" x="671.473" y="-157.8" font-family="Times,serif" font-size="14.00" fill="#000000">lib/addReleaseNotes.js</text>
</g>
<!-- lib/executePublish.js&#45;&gt;lib/addReleaseNotes.js -->
<g id="edge12" class="edge">
<title>lib/executePublish.js&#45;&gt;lib/addReleaseNotes.js</title>
<path fill="none" stroke="#000000" d="M744.2341,-216.5708C731.8266,-207.2652 716.3795,-195.6799 702.914,-185.5807"/>
<polygon fill="#000000" stroke="#000000" points="704.9307,-182.7183 694.8307,-179.5182 700.7307,-188.3183 704.9307,-182.7183"/>
</g>
<!-- lib/prompts/prompts.js -->
<g id="node14" class="node">
<title>lib/prompts/prompts.js</title>
<ellipse fill="none" stroke="#000000" cx="1251.473" cy="-162" rx="98.5133" ry="18"/>
<text text-anchor="middle" x="1251.473" y="-157.8" font-family="Times,serif" font-size="14.00" fill="#000000">lib/prompts/prompts.js</text>
</g>
<!-- lib/get.js&#45;&gt;lib/prompts/prompts.js -->
<g id="edge15" class="edge">
<title>lib/get.js&#45;&gt;lib/prompts/prompts.js</title>
<path fill="none" stroke="#000000" d="M1183.4416,-217.6621C1194.7563,-208.4046 1209.1295,-196.6447 1221.7465,-186.3217"/>
<polygon fill="#000000" stroke="#000000" points="1224.2111,-188.8275 1229.7343,-179.7862 1219.7784,-183.4098 1224.2111,-188.8275"/>
</g>
<!-- node_modules/configstore/index.js -->
<g id="node15" class="node">
<title>node_modules/configstore/index.js</title>
<ellipse fill="none" stroke="#000000" cx="1514.473" cy="-162" rx="146.4542" ry="18"/>
<text text-anchor="middle" x="1514.473" y="-157.8" font-family="Times,serif" font-size="14.00" fill="#000000">node_modules/configstore/index.js</text>
</g>
<!-- lib/getConfig.js&#45;&gt;node_modules/configstore/index.js -->
<g id="edge16" class="edge">
<title>lib/getConfig.js&#45;&gt;node_modules/configstore/index.js</title>
<path fill="none" stroke="#000000" d="M1340.8647,-219.6028C1373.1983,-208.8746 1417.7735,-194.0846 1453.66,-182.1776"/>
<polygon fill="#000000" stroke="#000000" points="1455.1451,-185.3725 1463.5341,-178.9014 1452.9406,-178.7287 1455.1451,-185.3725"/>
</g>
<!-- node_modules/@mithray/analyze&#45;js/index.js -->
<g id="node16" class="node">
<title>node_modules/@mithray/analyze&#45;js/index.js</title>
<ellipse fill="none" stroke="#000000" cx="1862.473" cy="-162" rx="183.5871" ry="18"/>
<text text-anchor="middle" x="1862.473" y="-157.8" font-family="Times,serif" font-size="14.00" fill="#000000">node_modules/@mithray/analyze&#45;js/index.js</text>
</g>
<!-- lib/getDependenciesSVG.js&#45;&gt;node_modules/@mithray/analyze&#45;js/index.js -->
<g id="edge17" class="edge">
<title>lib/getDependenciesSVG.js&#45;&gt;node_modules/@mithray/analyze&#45;js/index.js</title>
<path fill="none" stroke="#000000" d="M1576.0592,-219.6028C1632.4031,-208.271 1711.2788,-192.4078 1771.9948,-180.1967"/>
<polygon fill="#000000" stroke="#000000" points="1772.8456,-183.5958 1781.9592,-178.1927 1771.4654,-176.7332 1772.8456,-183.5958"/>
</g>
<!-- lib/git/gitAdd.js -->
<g id="node17" class="node">
<title>lib/git/gitAdd.js</title>
<ellipse fill="none" stroke="#000000" cx="72.473" cy="-90" rx="72.4461" ry="18"/>
<text text-anchor="middle" x="72.473" y="-85.8" font-family="Times,serif" font-size="14.00" fill="#000000">lib/git/gitAdd.js</text>
</g>
<!-- lib/git/git.js&#45;&gt;lib/git/gitAdd.js -->
<g id="edge18" class="edge">
<title>lib/git/git.js&#45;&gt;lib/git/gitAdd.js</title>
<path fill="none" stroke="#000000" d="M381.8588,-152.9211C326.4855,-142.4875 233.3325,-124.6544 153.473,-108 147.8718,-106.8319 142.0589,-105.593 136.2347,-104.3333"/>
<polygon fill="#000000" stroke="#000000" points="136.9738,-100.9123 126.4578,-102.2026 135.4832,-107.7518 136.9738,-100.9123"/>
</g>
<!-- lib/git/gitCommit.js -->
<g id="node18" class="node">
<title>lib/git/gitCommit.js</title>
<ellipse fill="none" stroke="#000000" cx="250.473" cy="-90" rx="87.51" ry="18"/>
<text text-anchor="middle" x="250.473" y="-85.8" font-family="Times,serif" font-size="14.00" fill="#000000">lib/git/gitCommit.js</text>
</g>
<!-- lib/git/git.js&#45;&gt;lib/git/gitCommit.js -->
<g id="edge19" class="edge">
<title>lib/git/git.js&#45;&gt;lib/git/gitCommit.js</title>
<path fill="none" stroke="#000000" d="M395.3399,-147.9468C368.1979,-137.0899 330.2901,-121.9268 300.0598,-109.8347"/>
<polygon fill="#000000" stroke="#000000" points="301.1225,-106.4902 290.5379,-106.0259 298.5228,-112.9896 301.1225,-106.4902"/>
</g>
<!-- lib/git/gitPush.js -->
<g id="node19" class="node">
<title>lib/git/gitPush.js</title>
<ellipse fill="none" stroke="#000000" cx="430.473" cy="-90" rx="74.7513" ry="18"/>
<text text-anchor="middle" x="430.473" y="-85.8" font-family="Times,serif" font-size="14.00" fill="#000000">lib/git/gitPush.js</text>
</g>
<!-- lib/git/git.js&#45;&gt;lib/git/gitPush.js -->
<g id="edge20" class="edge">
<title>lib/git/git.js&#45;&gt;lib/git/gitPush.js</title>
<path fill="none" stroke="#000000" d="M430.473,-143.8314C430.473,-136.131 430.473,-126.9743 430.473,-118.4166"/>
<polygon fill="#000000" stroke="#000000" points="433.9731,-118.4132 430.473,-108.4133 426.9731,-118.4133 433.9731,-118.4132"/>
</g>
<!-- lib/prompts/prompts.js&#45;&gt;lib/questions/release_questions.js -->
<g id="edge25" class="edge">
<title>lib/prompts/prompts.js&#45;&gt;lib/questions/release_questions.js</title>
<path fill="none" stroke="#000000" d="M1169.4048,-151.9508C1066.6302,-139.3662 890.1118,-117.7517 775.1128,-103.6702"/>
<polygon fill="#000000" stroke="#000000" points="775.2236,-100.1577 764.8723,-102.4162 774.3727,-107.1058 775.2236,-100.1577"/>
</g>
<!-- lib/prompts/prompts.js&#45;&gt;node_modules/ansi&#45;colors/index.js -->
<g id="edge26" class="edge">
<title>lib/prompts/prompts.js&#45;&gt;node_modules/ansi&#45;colors/index.js</title>
<path fill="none" stroke="#000000" d="M1193.4555,-147.3429C1149.3153,-136.1917 1088.2492,-120.7645 1040.5739,-108.7202"/>
<polygon fill="#000000" stroke="#000000" points="1041.1674,-105.2603 1030.6147,-106.2042 1039.4528,-112.047 1041.1674,-105.2603"/>
</g>
<!-- lib/prompts/prompts.js&#45;&gt;node_modules/inquirer/lib/inquirer.js -->
<g id="edge27" class="edge">
<title>lib/prompts/prompts.js&#45;&gt;node_modules/inquirer/lib/inquirer.js</title>
<path fill="none" stroke="#000000" d="M1260.0527,-143.8314C1263.8088,-135.8771 1268.2988,-126.369 1272.4528,-117.5723"/>
<polygon fill="#000000" stroke="#000000" points="1275.6726,-118.9503 1276.7779,-108.4133 1269.3429,-115.9612 1275.6726,-118.9503"/>
</g>
<!-- lib/markedCLI.js -->
<g id="node20" class="node">
<title>lib/markedCLI.js</title>
<ellipse fill="none" stroke="#000000" cx="2154.473" cy="-90" rx="77.0631" ry="18"/>
<text text-anchor="middle" x="2154.473" y="-85.8" font-family="Times,serif" font-size="14.00" fill="#000000">lib/markedCLI.js</text>
</g>
<!-- lib/prompts/prompts.js&#45;&gt;lib/markedCLI.js -->
<g id="edge23" class="edge">
<title>lib/prompts/prompts.js&#45;&gt;lib/markedCLI.js</title>
<path fill="none" stroke="#000000" d="M1321.0276,-149.2058C1333.7804,-147.2026 1347.0003,-145.3516 1359.473,-144 1673.1538,-110.0091 1755.5585,-148.4412 2068.473,-108 2075.2831,-107.1199 2082.3574,-105.9927 2089.3923,-104.7326"/>
<polygon fill="#000000" stroke="#000000" points="2090.4558,-108.0939 2099.6358,-102.8045 2089.1609,-101.2147 2090.4558,-108.0939"/>
</g>
<!-- lib/questions/hints.js -->
<g id="node23" class="node">
<title>lib/questions/hints.js</title>
<ellipse fill="none" stroke="#000000" cx="2340.473" cy="-90" rx="90.9247" ry="18"/>
<text text-anchor="middle" x="2340.473" y="-85.8" font-family="Times,serif" font-size="14.00" fill="#000000">lib/questions/hints.js</text>
</g>
<!-- lib/prompts/prompts.js&#45;&gt;lib/questions/hints.js -->
<g id="edge24" class="edge">
<title>lib/prompts/prompts.js&#45;&gt;lib/questions/hints.js</title>
<path fill="none" stroke="#000000" d="M1320.727,-149.1492C1333.5703,-147.1387 1346.8993,-145.2996 1359.473,-144 1749.2787,-103.7097 1850.9363,-150.8123 2240.473,-108 2249.0088,-107.0619 2257.9142,-105.8297 2266.74,-104.4491"/>
<polygon fill="#000000" stroke="#000000" points="2267.3398,-107.8976 2276.647,-102.8352 2266.2143,-100.9887 2267.3398,-107.8976"/>
</g>
<!-- node_modules/log&#45;update/index.js -->
<g id="node24" class="node">
<title>node_modules/log&#45;update/index.js</title>
<ellipse fill="none" stroke="#000000" cx="1603.473" cy="-90" rx="144.1705" ry="18"/>
<text text-anchor="middle" x="1603.473" y="-85.8" font-family="Times,serif" font-size="14.00" fill="#000000">node_modules/log&#45;update/index.js</text>
</g>
<!-- lib/prompts/prompts.js&#45;&gt;node_modules/log&#45;update/index.js -->
<g id="edge28" class="edge">
<title>lib/prompts/prompts.js&#45;&gt;node_modules/log&#45;update/index.js</title>
<path fill="none" stroke="#000000" d="M1317.2686,-148.5418C1374.0053,-136.9366 1456.3091,-120.1017 1518.1084,-107.4609"/>
<polygon fill="#000000" stroke="#000000" points="1519.1352,-110.8235 1528.231,-105.3904 1517.7324,-103.9655 1519.1352,-110.8235"/>
</g>
<!-- node_modules/node&#45;emoji/index.js -->
<g id="node25" class="node">
<title>node_modules/node&#45;emoji/index.js</title>
<ellipse fill="none" stroke="#000000" cx="1912.473" cy="-90" rx="147.0377" ry="18"/>
<text text-anchor="middle" x="1912.473" y="-85.8" font-family="Times,serif" font-size="14.00" fill="#000000">node_modules/node&#45;emoji/index.js</text>
</g>
<!-- lib/prompts/prompts.js&#45;&gt;node_modules/node&#45;emoji/index.js -->
<g id="edge29" class="edge">
<title>lib/prompts/prompts.js&#45;&gt;node_modules/node&#45;emoji/index.js</title>
<path fill="none" stroke="#000000" d="M1322.2361,-149.4288C1334.6235,-147.4506 1347.4067,-145.5504 1359.473,-144 1535.1968,-121.4211 1580.2373,-126.1552 1756.473,-108 1769.4395,-106.6642 1783.0042,-105.1995 1796.4913,-103.7007"/>
<polygon fill="#000000" stroke="#000000" points="1797.23,-107.14 1806.7787,-102.5494 1796.4514,-100.1834 1797.23,-107.14"/>
</g>
<!-- node_modules/cli&#45;marked/index.js -->
<g id="node21" class="node">
<title>node_modules/cli&#45;marked/index.js</title>
<ellipse fill="none" stroke="#000000" cx="1996.473" cy="-18" rx="144.727" ry="18"/>
<text text-anchor="middle" x="1996.473" y="-13.8" font-family="Times,serif" font-size="14.00" fill="#000000">node_modules/cli&#45;marked/index.js</text>
</g>
<!-- lib/markedCLI.js&#45;&gt;node_modules/cli&#45;marked/index.js -->
<g id="edge21" class="edge">
<title>lib/markedCLI.js&#45;&gt;node_modules/cli&#45;marked/index.js</title>
<path fill="none" stroke="#000000" d="M2119.0147,-73.8418C2096.9263,-63.7762 2068.2335,-50.701 2044.1657,-39.7334"/>
<polygon fill="#000000" stroke="#000000" points="2045.4031,-36.451 2034.852,-35.4891 2042.5003,-42.8208 2045.4031,-36.451"/>
</g>
<!-- node_modules/marked/lib/marked.js -->
<g id="node22" class="node">
<title>node_modules/marked/lib/marked.js</title>
<ellipse fill="none" stroke="#000000" cx="2311.473" cy="-18" rx="152.2512" ry="18"/>
<text text-anchor="middle" x="2311.473" y="-13.8" font-family="Times,serif" font-size="14.00" fill="#000000">node_modules/marked/lib/marked.js</text>
</g>
<!-- lib/markedCLI.js&#45;&gt;node_modules/marked/lib/marked.js -->
<g id="edge22" class="edge">
<title>lib/markedCLI.js&#45;&gt;node_modules/marked/lib/marked.js</title>
<path fill="none" stroke="#000000" d="M2189.7069,-73.8418C2211.6555,-63.7762 2240.1667,-50.701 2264.0822,-39.7334"/>
<polygon fill="#000000" stroke="#000000" points="2265.7063,-42.8391 2273.337,-35.4891 2262.7882,-36.4763 2265.7063,-42.8391"/>
</g>
</g>
</svg>
