<?xml version="1.0" encoding="UTF-8" standalone="no"?>
<!DOCTYPE svg PUBLIC "-//W3C//DTD SVG 1.1//EN"
 "http://www.w3.org/Graphics/SVG/1.1/DTD/svg11.dtd">
<!-- Generated by graphviz version 2.40.1 (20161225.0304)
 -->
<!-- Title: G Pages: 1 -->
<svg width="2661pt" height="332pt"
 viewBox="0.00 0.00 2661.07 332.00" xmlns="http://www.w3.org/2000/svg" xmlns:xlink="http://www.w3.org/1999/xlink">
<g id="graph0" class="graph" transform="scale(1 1) rotate(0) translate(4 328)">
<title>G</title>
<polygon fill="#ffffff" stroke="transparent" points="-4,4 -4,-328 2657.0721,-328 2657.0721,4 -4,4"/>
<!-- index.js -->
<g id="node1" class="node">
<title>index.js</title>
<ellipse fill="none" stroke="#000000" cx="1188.473" cy="-306" rx="41.1922" ry="18"/>
<text text-anchor="middle" x="1188.473" y="-301.8" font-family="Times,serif" font-size="14.00" fill="#000000">index.js</text>
</g>
<!-- lib/executePublish.js -->
<g id="node2" class="node">
<title>lib/executePublish.js</title>
<ellipse fill="none" stroke="#000000" cx="754.473" cy="-234" rx="91.4677" ry="18"/>
<text text-anchor="middle" x="754.473" y="-229.8" font-family="Times,serif" font-size="14.00" fill="#000000">lib/executePublish.js</text>
</g>
<!-- index.js&#45;&gt;lib/executePublish.js -->
<g id="edge1" class="edge">
<title>index.js&#45;&gt;lib/executePublish.js</title>
<path fill="none" stroke="#000000" d="M1149.5765,-299.5471C1078.9147,-287.8244 928.1489,-262.8126 834.6415,-247.2998"/>
<polygon fill="#000000" stroke="#000000" points="835.0928,-243.827 824.6548,-245.6431 833.9471,-250.7326 835.0928,-243.827"/>
</g>
<!-- lib/get.js -->
<g id="node3" class="node">
<title>lib/get.js</title>
<ellipse fill="none" stroke="#000000" cx="1288.473" cy="-234" rx="44.6367" ry="18"/>
<text text-anchor="middle" x="1288.473" y="-229.8" font-family="Times,serif" font-size="14.00" fill="#000000">lib/get.js</text>
</g>
<!-- index.js&#45;&gt;lib/get.js -->
<g id="edge2" class="edge">
<title>index.js&#45;&gt;lib/get.js</title>
<path fill="none" stroke="#000000" d="M1210.1715,-290.3771C1224.2271,-280.2571 1242.7318,-266.9337 1258.2228,-255.7801"/>
<polygon fill="#000000" stroke="#000000" points="1260.4013,-258.5245 1266.4715,-249.8411 1256.3111,-252.8438 1260.4013,-258.5245"/>
</g>
<!-- lib/getConfig.js -->
<g id="node4" class="node">
<title>lib/getConfig.js</title>
<ellipse fill="none" stroke="#000000" cx="1541.473" cy="-234" rx="71.285" ry="18"/>
<text text-anchor="middle" x="1541.473" y="-229.8" font-family="Times,serif" font-size="14.00" fill="#000000">lib/getConfig.js</text>
</g>
<!-- index.js&#45;&gt;lib/getConfig.js -->
<g id="edge3" class="edge">
<title>index.js&#45;&gt;lib/getConfig.js</title>
<path fill="none" stroke="#000000" d="M1226.2223,-298.5156C1278.1265,-288.1969 1374.434,-268.9512 1456.473,-252 1463.0236,-250.6465 1469.8551,-249.2218 1476.6738,-247.7912"/>
<polygon fill="#000000" stroke="#000000" points="1477.5554,-251.1825 1486.6206,-245.6986 1476.1142,-244.3324 1477.5554,-251.1825"/>
</g>
<!-- lib/getDependenciesSVG.js -->
<g id="node5" class="node">
<title>lib/getDependenciesSVG.js</title>
<ellipse fill="none" stroke="#000000" cx="1748.473" cy="-234" rx="118.0748" ry="18"/>
<text text-anchor="middle" x="1748.473" y="-229.8" font-family="Times,serif" font-size="14.00" fill="#000000">lib/getDependenciesSVG.js</text>
</g>
<!-- index.js&#45;&gt;lib/getDependenciesSVG.js -->
<g id="edge4" class="edge">
<title>index.js&#45;&gt;lib/getDependenciesSVG.js</title>
<path fill="none" stroke="#000000" d="M1228.4985,-301.2352C1304.9284,-292.0863 1476.9198,-271.2563 1621.473,-252 1631.5098,-250.663 1641.9876,-249.2331 1652.4332,-247.7855"/>
<polygon fill="#000000" stroke="#000000" points="1653.0009,-251.2403 1662.4227,-246.3946 1652.0355,-244.3071 1653.0009,-251.2403"/>
</g>
<!-- lib/git/git.js -->
<g id="node6" class="node">
<title>lib/git/git.js</title>
<ellipse fill="none" stroke="#000000" cx="350.473" cy="-162" rx="55.6899" ry="18"/>
<text text-anchor="middle" x="350.473" y="-157.8" font-family="Times,serif" font-size="14.00" fill="#000000">lib/git/git.js</text>
</g>
<!-- index.js&#45;&gt;lib/git/git.js -->
<g id="edge5" class="edge">
<title>index.js&#45;&gt;lib/git/git.js</title>
<path fill="none" stroke="#000000" d="M1147.1255,-303.7733C1029.3471,-297.1959 693.7014,-276.756 586.473,-252 515.4702,-235.6074 437.2027,-202.5726 391.0214,-181.4094"/>
<polygon fill="#000000" stroke="#000000" points="392.2135,-178.1046 381.668,-177.0838 389.2753,-184.4581 392.2135,-178.1046"/>
</g>
<!-- lib/incrementVersion.js -->
<g id="node7" class="node">
<title>lib/incrementVersion.js</title>
<ellipse fill="none" stroke="#000000" cx="625.473" cy="-90" rx="101.8998" ry="18"/>
<text text-anchor="middle" x="625.473" y="-85.8" font-family="Times,serif" font-size="14.00" fill="#000000">lib/incrementVersion.js</text>
</g>
<!-- index.js&#45;&gt;lib/incrementVersion.js -->
<g id="edge6" class="edge">
<title>index.js&#45;&gt;lib/incrementVersion.js</title>
<path fill="none" stroke="#000000" d="M1180.5021,-288.0881C1163.0369,-249.6921 1120.7772,-161.5189 1093.473,-144 1026.3633,-100.9411 815.5293,-118.3864 736.473,-108 727.5177,-106.8235 718.1739,-105.4843 708.8745,-104.0796"/>
<polygon fill="#000000" stroke="#000000" points="709.2372,-100.5944 698.8215,-102.5344 708.1737,-107.5131 709.2372,-100.5944"/>
</g>
<!-- lib/npm/npmPublish.js -->
<g id="node8" class="node">
<title>lib/npm/npmPublish.js</title>
<ellipse fill="none" stroke="#000000" cx="523.473" cy="-162" rx="98.5364" ry="18"/>
<text text-anchor="middle" x="523.473" y="-157.8" font-family="Times,serif" font-size="14.00" fill="#000000">lib/npm/npmPublish.js</text>
</g>
<!-- index.js&#45;&gt;lib/npm/npmPublish.js -->
<g id="edge7" class="edge">
<title>index.js&#45;&gt;lib/npm/npmPublish.js</title>
<path fill="none" stroke="#000000" d="M1147.2231,-304.4706C1038.2786,-300.0136 745.023,-285.1942 654.473,-252 614.4978,-237.3457 575.1204,-207.6605 550.1429,-186.3875"/>
<polygon fill="#000000" stroke="#000000" points="552.4039,-183.7155 542.5567,-179.806 547.8166,-189.003 552.4039,-183.7155"/>
</g>
<!-- lib/questions/release_questions.js -->
<g id="node9" class="node">
<title>lib/questions/release_questions.js</title>
<ellipse fill="none" stroke="#000000" cx="885.473" cy="-90" rx="140.0815" ry="18"/>
<text text-anchor="middle" x="885.473" y="-85.8" font-family="Times,serif" font-size="14.00" fill="#000000">lib/questions/release_questions.js</text>
</g>
<!-- index.js&#45;&gt;lib/questions/release_questions.js -->
<g id="edge8" class="edge">
<title>index.js&#45;&gt;lib/questions/release_questions.js</title>
<path fill="none" stroke="#000000" d="M1186.9869,-287.7776C1183.2183,-254.0318 1170.2136,-181.8137 1126.473,-144 1106.319,-126.5769 1048.9453,-113.3448 995.2345,-104.3403"/>
<polygon fill="#000000" stroke="#000000" points="995.6919,-100.8687 985.258,-102.7081 994.5616,-107.7768 995.6919,-100.8687"/>
</g>
<!-- lib/validateCommitMessage.js -->
<g id="node10" class="node">
<title>lib/validateCommitMessage.js</title>
<ellipse fill="none" stroke="#000000" cx="2013.473" cy="-234" rx="128.5638" ry="18"/>
<text text-anchor="middle" x="2013.473" y="-229.8" font-family="Times,serif" font-size="14.00" fill="#000000">lib/validateCommitMessage.js</text>
</g>
<!-- index.js&#45;&gt;lib/validateCommitMessage.js -->
<g id="edge9" class="edge">
<title>index.js&#45;&gt;lib/validateCommitMessage.js</title>
<path fill="none" stroke="#000000" d="M1229.5805,-303.5067C1336.3086,-296.8733 1630.9457,-277.5407 1875.473,-252 1887.1128,-250.7842 1899.2883,-249.3841 1911.3801,-247.913"/>
<polygon fill="#000000" stroke="#000000" points="1912.0082,-251.3621 1921.5039,-246.663 1911.1503,-244.4148 1912.0082,-251.3621"/>
</g>
<!-- node_modules/ansi&#45;colors/index.js -->
<g id="node11" class="node">
<title>node_modules/ansi&#45;colors/index.js</title>
<ellipse fill="none" stroke="#000000" cx="1188.473" cy="-90" rx="145.3085" ry="18"/>
<text text-anchor="middle" x="1188.473" y="-85.8" font-family="Times,serif" font-size="14.00" fill="#000000">node_modules/ansi&#45;colors/index.js</text>
</g>
<!-- index.js&#45;&gt;node_modules/ansi&#45;colors/index.js -->
<g id="edge10" class="edge">
<title>index.js&#45;&gt;node_modules/ansi&#45;colors/index.js</title>
<path fill="none" stroke="#000000" d="M1188.473,-287.9555C1188.473,-250.3938 1188.473,-163.5541 1188.473,-118.4103"/>
<polygon fill="#000000" stroke="#000000" points="1191.9731,-118.145 1188.473,-108.1451 1184.9731,-118.1451 1191.9731,-118.145"/>
</g>
<!-- node_modules/inquirer/lib/inquirer.js -->
<g id="node12" class="node">
<title>node_modules/inquirer/lib/inquirer.js</title>
<ellipse fill="none" stroke="#000000" cx="2497.473" cy="-90" rx="155.6981" ry="18"/>
<text text-anchor="middle" x="2497.473" y="-85.8" font-family="Times,serif" font-size="14.00" fill="#000000">node_modules/inquirer/lib/inquirer.js</text>
</g>
<!-- index.js&#45;&gt;node_modules/inquirer/lib/inquirer.js -->
<g id="edge11" class="edge">
<title>index.js&#45;&gt;node_modules/inquirer/lib/inquirer.js</title>
<path fill="none" stroke="#000000" d="M1225.0585,-297.4873C1257.4035,-288.9809 1305.1147,-273.9868 1342.473,-252 1383.9838,-227.5694 1387.9853,-212.5672 1423.473,-180 1440.6137,-164.27 1440.0436,-153.0562 1461.473,-144 1550.6933,-106.2948 2235.8848,-115.2562 2332.473,-108 2347.4409,-106.8755 2363.149,-105.4634 2378.6764,-103.9273"/>
<polygon fill="#000000" stroke="#000000" points="2379.2462,-107.3877 2388.8444,-102.9017 2378.5436,-100.423 2379.2462,-107.3877"/>
</g>
<!-- lib/executePublish.js&#45;&gt;lib/git/git.js -->
<g id="edge13" class="edge">
<title>lib/executePublish.js&#45;&gt;lib/git/git.js</title>
<path fill="none" stroke="#000000" d="M677.609,-224.262C608.5988,-214.9256 504.7197,-199.4013 415.473,-180 411.041,-179.0365 406.462,-177.9525 401.8821,-176.8065"/>
<polygon fill="#000000" stroke="#000000" points="402.4693,-173.3431 391.911,-174.2214 400.7126,-180.1191 402.4693,-173.3431"/>
</g>
<!-- lib/executePublish.js&#45;&gt;lib/npm/npmPublish.js -->
<g id="edge14" class="edge">
<title>lib/executePublish.js&#45;&gt;lib/npm/npmPublish.js</title>
<path fill="none" stroke="#000000" d="M705.4839,-218.7307C669.8629,-207.628 621.4386,-192.5347 583.4928,-180.7074"/>
<polygon fill="#000000" stroke="#000000" points="584.1762,-177.2545 573.5877,-177.6202 582.0932,-183.9374 584.1762,-177.2545"/>
</g>
<!-- lib/addReleaseNotes.js -->
<g id="node13" class="node">
<title>lib/addReleaseNotes.js</title>
<ellipse fill="none" stroke="#000000" cx="985.473" cy="-162" rx="99.0311" ry="18"/>
<text text-anchor="middle" x="985.473" y="-157.8" font-family="Times,serif" font-size="14.00" fill="#000000">lib/addReleaseNotes.js</text>
</g>
<!-- lib/executePublish.js&#45;&gt;lib/addReleaseNotes.js -->
<g id="edge12" class="edge">
<title>lib/executePublish.js&#45;&gt;lib/addReleaseNotes.js</title>
<path fill="none" stroke="#000000" d="M803.4622,-218.7307C839.0832,-207.628 887.5075,-192.5347 925.4533,-180.7074"/>
<polygon fill="#000000" stroke="#000000" points="926.8529,-183.9374 935.3584,-177.6202 924.7698,-177.2545 926.8529,-183.9374"/>
</g>
<!-- lib/updatePackageJSON.js -->
<g id="node14" class="node">
<title>lib/updatePackageJSON.js</title>
<ellipse fill="none" stroke="#000000" cx="754.473" cy="-162" rx="113.5019" ry="18"/>
<text text-anchor="middle" x="754.473" y="-157.8" font-family="Times,serif" font-size="14.00" fill="#000000">lib/updatePackageJSON.js</text>
</g>
<!-- lib/executePublish.js&#45;&gt;lib/updatePackageJSON.js -->
<g id="edge15" class="edge">
<title>lib/executePublish.js&#45;&gt;lib/updatePackageJSON.js</title>
<path fill="none" stroke="#000000" d="M754.473,-215.8314C754.473,-208.131 754.473,-198.9743 754.473,-190.4166"/>
<polygon fill="#000000" stroke="#000000" points="757.9731,-190.4132 754.473,-180.4133 750.9731,-190.4133 757.9731,-190.4132"/>
</g>
<!-- lib/prompts/prompts.js -->
<g id="node15" class="node">
<title>lib/prompts/prompts.js</title>
<ellipse fill="none" stroke="#000000" cx="1315.473" cy="-162" rx="98.5133" ry="18"/>
<text text-anchor="middle" x="1315.473" y="-157.8" font-family="Times,serif" font-size="14.00" fill="#000000">lib/prompts/prompts.js</text>
</g>
<!-- lib/get.js&#45;&gt;lib/prompts/prompts.js -->
<g id="edge16" class="edge">
<title>lib/get.js&#45;&gt;lib/prompts/prompts.js</title>
<path fill="none" stroke="#000000" d="M1295.1472,-216.2022C1298.1426,-208.2146 1301.7463,-198.6045 1305.0823,-189.7087"/>
<polygon fill="#000000" stroke="#000000" points="1308.454,-190.6854 1308.6881,-180.0931 1301.8997,-188.2275 1308.454,-190.6854"/>
</g>
<!-- node_modules/configstore/index.js -->
<g id="node16" class="node">
<title>node_modules/configstore/index.js</title>
<ellipse fill="none" stroke="#000000" cx="1616.473" cy="-162" rx="146.4542" ry="18"/>
<text text-anchor="middle" x="1616.473" y="-157.8" font-family="Times,serif" font-size="14.00" fill="#000000">node_modules/configstore/index.js</text>
</g>
<!-- lib/getConfig.js&#45;&gt;node_modules/configstore/index.js -->
<g id="edge17" class="edge">
<title>lib/getConfig.js&#45;&gt;node_modules/configstore/index.js</title>
<path fill="none" stroke="#000000" d="M1559.6284,-216.5708C1568.8178,-207.749 1580.1413,-196.8784 1590.2569,-187.1674"/>
<polygon fill="#000000" stroke="#000000" points="1592.9115,-189.4708 1597.7016,-180.0206 1588.0638,-184.4211 1592.9115,-189.4708"/>
</g>
<!-- node_modules/@mithray/analyze&#45;js/index.js -->
<g id="node17" class="node">
<title>node_modules/@mithray/analyze&#45;js/index.js</title>
<ellipse fill="none" stroke="#000000" cx="1964.473" cy="-162" rx="183.5871" ry="18"/>
<text text-anchor="middle" x="1964.473" y="-157.8" font-family="Times,serif" font-size="14.00" fill="#000000">node_modules/@mithray/analyze&#45;js/index.js</text>
</g>
<!-- lib/getDependenciesSVG.js&#45;&gt;node_modules/@mithray/analyze&#45;js/index.js -->
<g id="edge18" class="edge">
<title>lib/getDependenciesSVG.js&#45;&gt;node_modules/@mithray/analyze&#45;js/index.js</title>
<path fill="none" stroke="#000000" d="M1797.757,-217.572C1828.9216,-207.1838 1869.4577,-193.6718 1902.7552,-182.5726"/>
<polygon fill="#000000" stroke="#000000" points="1904.0082,-185.8443 1912.3882,-179.3616 1901.7946,-179.2036 1904.0082,-185.8443"/>
</g>
<!-- lib/git/gitAdd.js -->
<g id="node18" class="node">
<title>lib/git/gitAdd.js</title>
<ellipse fill="none" stroke="#000000" cx="72.473" cy="-90" rx="72.4461" ry="18"/>
<text text-anchor="middle" x="72.473" y="-85.8" font-family="Times,serif" font-size="14.00" fill="#000000">lib/git/gitAdd.js</text>
</g>
<!-- lib/git/git.js&#45;&gt;lib/git/gitAdd.js -->
<g id="edge19" class="edge">
<title>lib/git/git.js&#45;&gt;lib/git/gitAdd.js</title>
<path fill="none" stroke="#000000" d="M306.7297,-150.6708C259.9,-138.5422 185.2763,-119.2152 132.8653,-105.6412"/>
<polygon fill="#000000" stroke="#000000" points="133.5801,-102.2109 123.022,-103.0918 131.8251,-108.9873 133.5801,-102.2109"/>
</g>
<!-- lib/git/gitCommit.js -->
<g id="node19" class="node">
<title>lib/git/gitCommit.js</title>
<ellipse fill="none" stroke="#000000" cx="250.473" cy="-90" rx="87.51" ry="18"/>
<text text-anchor="middle" x="250.473" y="-85.8" font-family="Times,serif" font-size="14.00" fill="#000000">lib/git/gitCommit.js</text>
</g>
<!-- lib/git/git.js&#45;&gt;lib/git/gitCommit.js -->
<g id="edge20" class="edge">
<title>lib/git/git.js&#45;&gt;lib/git/gitCommit.js</title>
<path fill="none" stroke="#000000" d="M327.2797,-145.3008C314.0643,-135.7857 297.3017,-123.7166 282.8104,-113.2829"/>
<polygon fill="#000000" stroke="#000000" points="284.7451,-110.3631 274.5846,-107.3603 280.6549,-116.0438 284.7451,-110.3631"/>
</g>
<!-- lib/git/gitPush.js -->
<g id="node20" class="node">
<title>lib/git/gitPush.js</title>
<ellipse fill="none" stroke="#000000" cx="430.473" cy="-90" rx="74.7513" ry="18"/>
<text text-anchor="middle" x="430.473" y="-85.8" font-family="Times,serif" font-size="14.00" fill="#000000">lib/git/gitPush.js</text>
</g>
<!-- lib/git/git.js&#45;&gt;lib/git/gitPush.js -->
<g id="edge21" class="edge">
<title>lib/git/git.js&#45;&gt;lib/git/gitPush.js</title>
<path fill="none" stroke="#000000" d="M369.4319,-144.937C379.6433,-135.7468 392.4121,-124.2548 403.6282,-114.1604"/>
<polygon fill="#000000" stroke="#000000" points="406.0029,-116.7319 411.0945,-107.4407 401.3201,-111.5288 406.0029,-116.7319"/>
</g>
<!-- lib/prompts/prompts.js&#45;&gt;lib/incrementVersion.js -->
<g id="edge24" class="edge">
<title>lib/prompts/prompts.js&#45;&gt;lib/incrementVersion.js</title>
<path fill="none" stroke="#000000" d="M1227.9684,-153.6128C1196.0285,-150.5655 1159.6182,-147.1081 1126.473,-144 953.1631,-127.7483 909.1544,-129.9448 736.473,-108 727.4417,-106.8523 718.0175,-105.5254 708.6432,-104.1228"/>
<polygon fill="#000000" stroke="#000000" points="708.9253,-100.6254 698.5116,-102.5759 707.8687,-107.5452 708.9253,-100.6254"/>
</g>
<!-- lib/prompts/prompts.js&#45;&gt;lib/questions/release_questions.js -->
<g id="edge27" class="edge">
<title>lib/prompts/prompts.js&#45;&gt;lib/questions/release_questions.js</title>
<path fill="none" stroke="#000000" d="M1242.5294,-149.7862C1170.4923,-137.7242 1059.9437,-119.2137 980.9487,-105.9866"/>
<polygon fill="#000000" stroke="#000000" points="981.4323,-102.519 970.9916,-104.3194 980.2762,-109.4228 981.4323,-102.519"/>
</g>
<!-- lib/prompts/prompts.js&#45;&gt;node_modules/ansi&#45;colors/index.js -->
<g id="edge28" class="edge">
<title>lib/prompts/prompts.js&#45;&gt;node_modules/ansi&#45;colors/index.js</title>
<path fill="none" stroke="#000000" d="M1285.0534,-144.7542C1268.0263,-135.1011 1246.5967,-122.952 1228.2518,-112.5518"/>
<polygon fill="#000000" stroke="#000000" points="1229.9522,-109.4924 1219.5268,-107.6053 1226.4998,-115.5819 1229.9522,-109.4924"/>
</g>
<!-- lib/prompts/prompts.js&#45;&gt;node_modules/inquirer/lib/inquirer.js -->
<g id="edge29" class="edge">
<title>lib/prompts/prompts.js&#45;&gt;node_modules/inquirer/lib/inquirer.js</title>
<path fill="none" stroke="#000000" d="M1386.4364,-149.3842C1400.3365,-147.2846 1414.8329,-145.3532 1428.473,-144 1828.605,-104.3041 1931.4841,-137.8208 2332.473,-108 2347.4418,-106.8868 2363.1504,-105.4814 2378.678,-103.9487"/>
<polygon fill="#000000" stroke="#000000" points="2379.2471,-107.4092 2388.8461,-102.925 2378.5458,-100.4444 2379.2471,-107.4092"/>
</g>
<!-- lib/markedCLI.js -->
<g id="node21" class="node">
<title>lib/markedCLI.js</title>
<ellipse fill="none" stroke="#000000" cx="2246.473" cy="-90" rx="77.0631" ry="18"/>
<text text-anchor="middle" x="2246.473" y="-85.8" font-family="Times,serif" font-size="14.00" fill="#000000">lib/markedCLI.js</text>
</g>
<!-- lib/prompts/prompts.js&#45;&gt;lib/markedCLI.js -->
<g id="edge25" class="edge">
<title>lib/prompts/prompts.js&#45;&gt;lib/markedCLI.js</title>
<path fill="none" stroke="#000000" d="M1386.749,-149.4403C1400.5559,-147.3492 1414.9381,-145.4066 1428.473,-144 1752.4547,-110.3304 1837.4001,-149.4928 2160.473,-108 2167.2838,-107.1253 2174.3585,-106.0016 2181.3937,-104.7436"/>
<polygon fill="#000000" stroke="#000000" points="2182.4564,-108.1052 2191.6375,-102.8177 2181.163,-101.2257 2182.4564,-108.1052"/>
</g>
<!-- lib/questions/hints.js -->
<g id="node24" class="node">
<title>lib/questions/hints.js</title>
<ellipse fill="none" stroke="#000000" cx="1442.473" cy="-90" rx="90.9247" ry="18"/>
<text text-anchor="middle" x="1442.473" y="-85.8" font-family="Times,serif" font-size="14.00" fill="#000000">lib/questions/hints.js</text>
</g>
<!-- lib/prompts/prompts.js&#45;&gt;lib/questions/hints.js -->
<g id="edge26" class="edge">
<title>lib/prompts/prompts.js&#45;&gt;lib/questions/hints.js</title>
<path fill="none" stroke="#000000" d="M1345.8927,-144.7542C1363.172,-134.9581 1384.9853,-122.5915 1403.5075,-112.0907"/>
<polygon fill="#000000" stroke="#000000" points="1405.3285,-115.0817 1412.3016,-107.1051 1401.8762,-108.9922 1405.3285,-115.0817"/>
</g>
<!-- node_modules/log&#45;update/index.js -->
<g id="node25" class="node">
<title>node_modules/log&#45;update/index.js</title>
<ellipse fill="none" stroke="#000000" cx="1695.473" cy="-90" rx="144.1705" ry="18"/>
<text text-anchor="middle" x="1695.473" y="-85.8" font-family="Times,serif" font-size="14.00" fill="#000000">node_modules/log&#45;update/index.js</text>
</g>
<!-- lib/prompts/prompts.js&#45;&gt;node_modules/log&#45;update/index.js -->
<g id="edge30" class="edge">
<title>lib/prompts/prompts.js&#45;&gt;node_modules/log&#45;update/index.js</title>
<path fill="none" stroke="#000000" d="M1384.2882,-148.9613C1446.3358,-137.205 1537.9761,-119.8415 1605.7531,-106.9996"/>
<polygon fill="#000000" stroke="#000000" points="1606.8216,-110.3595 1615.9952,-105.059 1605.5184,-103.4818 1606.8216,-110.3595"/>
</g>
<!-- node_modules/node&#45;emoji/index.js -->
<g id="node26" class="node">
<title>node_modules/node&#45;emoji/index.js</title>
<ellipse fill="none" stroke="#000000" cx="2004.473" cy="-90" rx="147.0377" ry="18"/>
<text text-anchor="middle" x="2004.473" y="-85.8" font-family="Times,serif" font-size="14.00" fill="#000000">node_modules/node&#45;emoji/index.js</text>
</g>
<!-- lib/prompts/prompts.js&#45;&gt;node_modules/node&#45;emoji/index.js -->
<g id="edge31" class="edge">
<title>lib/prompts/prompts.js&#45;&gt;node_modules/node&#45;emoji/index.js</title>
<path fill="none" stroke="#000000" d="M1387.7013,-149.6963C1401.2256,-147.6195 1415.2617,-145.6163 1428.473,-144 1614.4376,-121.2491 1662.0614,-126.7395 1848.473,-108 1861.6791,-106.6724 1875.504,-105.1988 1889.2349,-103.6827"/>
<polygon fill="#000000" stroke="#000000" points="1889.6549,-107.1577 1899.2063,-102.5728 1888.8804,-100.2007 1889.6549,-107.1577"/>
</g>
<!-- node_modules/cli&#45;marked/index.js -->
<g id="node22" class="node">
<title>node_modules/cli&#45;marked/index.js</title>
<ellipse fill="none" stroke="#000000" cx="2088.473" cy="-18" rx="144.727" ry="18"/>
<text text-anchor="middle" x="2088.473" y="-13.8" font-family="Times,serif" font-size="14.00" fill="#000000">node_modules/cli&#45;marked/index.js</text>
</g>
<!-- lib/markedCLI.js&#45;&gt;node_modules/cli&#45;marked/index.js -->
<g id="edge22" class="edge">
<title>lib/markedCLI.js&#45;&gt;node_modules/cli&#45;marked/index.js</title>
<path fill="none" stroke="#000000" d="M2211.0147,-73.8418C2188.9263,-63.7762 2160.2335,-50.701 2136.1657,-39.7334"/>
<polygon fill="#000000" stroke="#000000" points="2137.4031,-36.451 2126.852,-35.4891 2134.5003,-42.8208 2137.4031,-36.451"/>
</g>
<!-- node_modules/marked/lib/marked.js -->
<g id="node23" class="node">
<title>node_modules/marked/lib/marked.js</title>
<ellipse fill="none" stroke="#000000" cx="2403.473" cy="-18" rx="152.2512" ry="18"/>
<text text-anchor="middle" x="2403.473" y="-13.8" font-family="Times,serif" font-size="14.00" fill="#000000">node_modules/marked/lib/marked.js</text>
</g>
<!-- lib/markedCLI.js&#45;&gt;node_modules/marked/lib/marked.js -->
<g id="edge23" class="edge">
<title>lib/markedCLI.js&#45;&gt;node_modules/marked/lib/marked.js</title>
<path fill="none" stroke="#000000" d="M2281.7069,-73.8418C2303.6555,-63.7762 2332.1667,-50.701 2356.0822,-39.7334"/>
<polygon fill="#000000" stroke="#000000" points="2357.7063,-42.8391 2365.337,-35.4891 2354.7882,-36.4763 2357.7063,-42.8391"/>
</g>
</g>
</svg>
